<?xml version="1.0" encoding="utf-8"?>
<!-- Generator: Adobe Illustrator 26.4.1, SVG Export Plug-In . SVG Version: 6.00 Build 0)  -->
<svg version="1.1" id="Layer_1" xmlns="http://www.w3.org/2000/svg" xmlns:xlink="http://www.w3.org/1999/xlink" x="0px" y="0px"
	 viewBox="0 0 48 48" style="enable-background:new 0 0 48 48;" xml:space="preserve">
<style type="text/css">
	.st0{fill:#002E6D;}
	.st1{fill:#87A9E2;}
	.st2{fill:#EA0029;}
	.st3{fill:#FFFFFF;}
</style>
<g>
	<g id="Navy_294C">
		<path class="st0" d="M24,0C10.8,0,0,10.8,0,24c0,4,1,8,2.9,11.5C7.1,43.2,15.2,48,24,48c9.7,0,18.3-5.8,22.1-14.7
			c1.3-3,1.9-6.1,1.9-9.3C48,10.8,37.2,0,24,0z M23.3,26.7c-0.2,0.1-0.3,0.2-0.5,0.3c-0.2,0.1-0.3,0.2-0.5,0.3
			c-0.1,0-0.2,0.1-0.2,0.1c-0.2,0.1-0.3,0.2-0.5,0.2c-0.1,0-0.2,0.1-0.2,0.1c-0.1,0.1-0.3,0.1-0.4,0.2c-0.2,1.8-1,3.5-2.4,4.9
			c-0.1,0.1-0.3,0.2-0.4,0.4c0,0-0.1,0.1-0.1,0.1c-0.1,0.1-0.2,0.2-0.3,0.2c0,0-0.1,0.1-0.1,0.1c-0.1,0.1-0.3,0.2-0.4,0.3
			c0,0,0,0-0.1,0c-0.1,0.1-0.2,0.2-0.4,0.2c0,0-0.1,0-0.1,0.1c-0.1,0.1-0.2,0.1-0.3,0.2c0,0-0.1,0-0.1,0.1c-0.1,0.1-0.3,0.1-0.4,0.2
			c0,0-0.1,0-0.1,0c-0.1,0-0.3,0.1-0.4,0.1c0,0-0.1,0-0.1,0c-0.1,0-0.3,0.1-0.4,0.1c0,0-0.1,0-0.1,0c-0.2,0-0.3,0.1-0.5,0.1
			c0,0-0.1,0-0.1,0c-0.1,0-0.2,0-0.4,0.1c0,0-0.1,0-0.1,0c-0.1,0-0.3,0-0.4,0c0,0,0,0-0.1,0c-0.2,0-0.3,0-0.5,0c-0.1,0-0.2,0-0.3,0
			c-0.1,0-0.2,0-0.2,0c-0.1,0-0.2,0-0.3,0c-0.1,0-0.1,0-0.2,0c-0.1,0-0.2,0-0.4-0.1c-0.1,0-0.1,0-0.2,0c-0.2,0-0.4-0.1-0.5-0.1
			c-0.6-0.2-1.7-0.8-3.3-2.4c-1.6-1.6-2.2-2.7-2.4-3.3c-0.8-2.8-0.1-5.9,2.1-8.1c1.4-1.4,3.1-2.2,4.9-2.4c0-0.1,0.1-0.1,0.1-0.2
			c0,0,0,0,0-0.1c0-0.1,0-0.1,0.1-0.2c0,0,0-0.1,0-0.1c0,0,0-0.1,0.1-0.1c0,0,0-0.1,0-0.1c0,0,0-0.1,0.1-0.1c0,0,0-0.1,0.1-0.1
			c0,0,0-0.1,0.1-0.1c0,0,0-0.1,0.1-0.1c0,0,0-0.1,0.1-0.1c0,0,0-0.1,0.1-0.1c0,0,0.1-0.1,0.1-0.1c0,0,0-0.1,0.1-0.1
			c0,0,0.1-0.1,0.1-0.1c0,0,0-0.1,0.1-0.1c0,0,0.1-0.1,0.1-0.1c0,0,0-0.1,0.1-0.1c0,0,0.1-0.1,0.1-0.1c0,0,0.1-0.1,0.1-0.1
			c0,0,0.1-0.1,0.1-0.1c0,0,0.1-0.1,0.1-0.1c0,0,0.1-0.1,0.1-0.1c0,0,0.1-0.1,0.1-0.1c0,0,0.1-0.1,0.1-0.1c0,0,0.1-0.1,0.1-0.1
			c0,0,0.1-0.1,0.1-0.1c0,0,0.1-0.1,0.1-0.1c0,0,0.1-0.1,0.1-0.1c0,0,0.1-0.1,0.1-0.1c0,0,0.1-0.1,0.1-0.1c0,0,0.1-0.1,0.1-0.1
			c0,0,0.1-0.1,0.1-0.1c0,0,0.1-0.1,0.1-0.1c0,0,0.1-0.1,0.1-0.1c0,0,0.1-0.1,0.1-0.1c0,0,0.1-0.1,0.1-0.1c0,0,0.1-0.1,0.1-0.1
			c0,0,0.1-0.1,0.1-0.1c0,0,0.1-0.1,0.1-0.1c0,0,0.1-0.1,0.1-0.1c0,0,0.1-0.1,0.1-0.1c0,0,0.1-0.1,0.1-0.1c0,0,0.1-0.1,0.1-0.1
			c0,0,0.1-0.1,0.1-0.1c0,0,0.1-0.1,0.1-0.1c0,0,0.1-0.1,0.1-0.1c0,0,0.1,0,0.1-0.1c0,0,0.1-0.1,0.1-0.1c0,0,0.1,0,0.1-0.1
			c0,0,0.1,0,0.1-0.1c0,0,0.1,0,0.1-0.1c0,0,0.1,0,0.1-0.1c0,0,0.1,0,0.1,0c0,0,0.1,0,0.1,0c0,0,0.1,0,0.1,0c0,0,0.1,0,0.1,0
			c0,0,0.1,0,0.1,0c0,0,0.1,0,0.1,0c0,0,0.1,0,0.1,0c0,0,0.1,0,0.1,0c0,0,0.1,0,0.1,0c0,0,0.1,0,0.1,0c2.1,0.1,4.5,1.7,6.5,3.6
			c1.9,1.9,3.5,4.4,3.6,6.5c0,0.3-0.1,0.6-0.3,0.9c-0.1,0-0.2,0-0.3,0c-0.6-0.1-1.1-0.4-1.6-0.6c-0.1,0-0.1-0.1-0.2-0.1
			c-0.1-0.1-0.2-0.2-0.3-0.2l0,0c0,0,0,0,0,0c0-0.1,0-0.1,0.1-0.2c0,0,0,0,0,0c0-0.1,0-0.1,0-0.2c-0.1-1.4-1.4-3-2.7-4.3
			c-1.3-1.3-2.8-2.6-4.3-2.7c0,0,0,0,0,0c0,0,0,0,0,0c-0.1,0-0.1,0-0.2,0c0,0,0,0,0,0c-0.1,0-0.1,0-0.2,0.1c0,0,0,0,0,0
			c-0.1,0-0.1,0.1-0.2,0.1c0,0,0,0,0,0c-0.1,0.1-0.1,0.1-0.2,0.2c0,0,0,0,0,0c-0.1,0.1-0.1,0.1-0.2,0.2c0,0,0,0,0,0
			c-0.1,0.1-0.1,0.2-0.2,0.2c0,0,0,0,0,0c-0.1,0.1-0.1,0.2-0.2,0.3c0,0,0,0,0,0c-0.1,0.1-0.1,0.2-0.1,0.3c0,0,0,0,0,0
			c0,0.1-0.1,0.2-0.1,0.3c0,0,0,0,0,0c0,0.1-0.1,0.2-0.1,0.3c0,0,0,0,0,0c0,0.1-0.1,0.2-0.1,0.3c0,0,0,0,0,0c0,0.1-0.1,0.2-0.1,0.3
			c0,0,0,0,0,0c0,0.1,0,0.2-0.1,0.3c0,0,0,0,0,0c0,0.1,0,0.2,0,0.3c0,0,0,0,0,0c0,0.1,0,0.2,0,0.3v0c0,0.1,0,0.2,0,0.2l0,0
			c0,0,0,0,0,0c1.1,0.4,2.2,1,3.1,1.9c0.9,0.9,1.5,1.9,1.9,3.1c0,0,0,0,0,0c0.1,0,0.1,0,0.2,0c0,0,0,0,0,0c0,0,0,0,0.1,0
			C21.4,25.2,22.4,26,23.3,26.7C23.4,26.7,23.3,26.7,23.3,26.7z M42.5,23c1.1,1.9,1.3,4.2,0.7,6.3c-0.1,0.4-0.4,1-1,1.7
			c-0.4,0.5-0.8,1-1.4,1.6c-0.2,0.2-0.4,0.4-0.6,0.6c-0.1,0.1-0.2,0.2-0.3,0.2c0,0-0.1,0.1-0.1,0.1c0,0-0.1,0.1-0.1,0.1
			c-0.1,0.1-0.2,0.1-0.2,0.2c-0.2,0.1-0.3,0.2-0.5,0.4c-0.1,0.1-0.1,0.1-0.2,0.2c-0.1,0.1-0.3,0.2-0.4,0.3c-0.1,0-0.1,0.1-0.2,0.1
			c-0.1,0-0.1,0.1-0.2,0.1c-0.2,0.1-0.4,0.2-0.5,0.2c-0.2,0.1-0.4,0.1-0.5,0.1c-0.1,0-0.1,0-0.2,0c-0.1,0-0.2,0-0.4,0.1
			c-0.1,0-0.1,0-0.2,0c-0.1,0-0.2,0-0.3,0c-0.1,0-0.2,0-0.2,0c-0.1,0-0.2,0-0.3,0c-0.2,0-0.3,0-0.5,0c0,0,0,0-0.1,0
			c-0.1,0-0.3,0-0.4,0c0,0-0.1,0-0.1,0c-0.1,0-0.2,0-0.4-0.1c0,0-0.1,0-0.1,0c-0.2,0-0.3-0.1-0.5-0.1c0,0-0.1,0-0.1,0
			C33.1,35,33,35,32.8,35c0,0,0,0,0,0c0,0-0.1,0-0.1,0c-0.1,0-0.2-0.1-0.4-0.1c0,0-0.1,0-0.1,0c-0.2-0.1-0.3-0.1-0.4-0.2
			c0,0-0.1,0-0.1-0.1c0,0-0.1,0-0.1,0c-0.1,0-0.2-0.1-0.2-0.1c0,0-0.1,0-0.1-0.1c-0.1-0.1-0.3-0.1-0.4-0.2c0,0,0,0-0.1,0
			c-0.1-0.1-0.3-0.2-0.4-0.3c0,0-0.1-0.1-0.1-0.1c-0.1-0.1-0.2-0.2-0.3-0.2c0,0-0.1-0.1-0.1-0.1c-0.1-0.1-0.3-0.2-0.4-0.4
			c-0.2-0.2-0.3-0.4-0.5-0.5c-0.3-0.4-0.6-0.8-0.8-1.2c-0.6-1-0.9-2.1-1.1-3.2c-0.1-0.1-0.3-0.1-0.4-0.2c-0.1,0-0.1-0.1-0.2-0.1
			c-0.2-0.1-0.3-0.2-0.5-0.2c-2.2-1.2-5.2-3.3-5.1-4.7c0-0.3,0.1-0.7,0.2-1.1s0.2-0.7,0.4-1.1c0.1-0.2,0.2-0.5,0.3-0.7
			c0.1-0.2,0.2-0.4,0.3-0.6c0.6,0.7,1.2,1.5,1.5,2.2c0,0,0,0.1,0,0.1l0,0c-0.1,0.2-0.1,0.4-0.1,0.6l0,0c0,0.1,0,0.1,0,0.2
			c0,0,0,0,0,0c0,0.1,0,0.1,0.1,0.2l0,0c0,0,0,0,0,0l0,0c0,0,0,0,0,0c0,0.1,0.1,0.1,0.1,0.2c0,0,0,0,0,0c0,0.1,0.1,0.1,0.1,0.2
			c0,0,0,0,0,0c0,0,0,0,0,0c0.1,0.1,0.1,0.1,0.2,0.2l0,0l0,0c0,0,0,0,0,0c0,0,0,0,0,0l0,0c0.1,0.1,0.1,0.1,0.2,0.2c0,0,0,0,0,0
			c0.1,0,0.1,0.1,0.2,0.1c0,0,0,0,0,0c0.1,0,0.2,0.1,0.2,0.1c0,0,0,0,0,0c0.1,0,0.2,0.1,0.2,0.1c0,0,0,0,0,0c0,0,0,0,0,0
			c0.1,0,0.2,0.1,0.3,0.1c0,0,0,0,0,0c0.1,0,0.2,0.1,0.3,0.1c0,0,0,0,0,0c0.1,0,0.2,0.1,0.3,0.1c0,0,0,0,0,0c0.1,0,0.2,0,0.3,0.1
			c0,0,0,0,0,0c0,0,0.1,0,0.1,0l0,0c0,0,0.1,0,0.1,0c0,0,0,0,0,0c0.1,0,0.2,0,0.3,0c0,0,0,0,0,0c0.1,0,0.2,0,0.2,0c0,0,0,0,0,0
			c0,0,0,0,0,0c0,0,0.1,0,0.1,0c0,0,0,0,0.1,0c0,0,0,0,0,0l0,0c0.1,0,0.1,0,0.2,0l0,0c0,0,0,0,0,0c0.2-0.6,0.5-1.1,0.8-1.6
			c0.3-0.5,0.7-1,1.2-1.4c0.2-0.2,0.4-0.4,0.6-0.6c0.6-0.5,1.3-0.9,2.1-1.2l0,0c0.1,0,0.2-0.1,0.4-0.1c0,0,0,0,0,0l0,0
			c0-0.1,0-0.2,0-0.2v0c0-0.1,0-0.2,0-0.3c0,0,0,0,0,0c0-0.1,0-0.2,0-0.3c0,0,0,0,0,0c0-0.1,0-0.2-0.1-0.3c0,0,0,0,0,0
			c0-0.1,0-0.2-0.1-0.3c0,0,0,0,0,0c0-0.1-0.1-0.2-0.1-0.3c0,0,0,0,0,0c0-0.1-0.1-0.2-0.1-0.3c0,0,0,0,0,0c0-0.1-0.1-0.2-0.1-0.3
			c0,0,0,0,0,0c0-0.1-0.1-0.2-0.1-0.3c0,0,0,0,0,0c0-0.1-0.1-0.2-0.2-0.3c0,0,0,0,0,0c-0.1-0.1-0.1-0.2-0.2-0.2c0,0,0,0,0,0
			c-0.1-0.1-0.1-0.1-0.2-0.2c0,0,0,0,0,0c-0.1-0.1-0.1-0.1-0.2-0.2c0,0,0,0,0,0c-0.1,0-0.1-0.1-0.2-0.1c0,0,0,0,0,0
			c-0.1,0-0.1-0.1-0.2-0.1c0,0,0,0,0,0c-0.1,0-0.1,0-0.2,0c0,0,0,0,0,0c0,0,0,0,0,0c-1.4,0.1-3,1.4-4.3,2.7
			c-0.1,0.1-0.1,0.1-0.2,0.2c-0.4-0.6-1-1.3-1.5-1.9c0.2-0.2,0.5-0.5,0.7-0.7c0.1-0.1,0.3-0.2,0.4-0.3c0.4-0.3,0.8-0.6,1.2-0.9
			c0.3-0.2,0.5-0.4,0.8-0.5c0.3-0.2,0.6-0.3,0.8-0.4c0.4-0.2,0.8-0.4,1.2-0.5c0.3-0.1,0.5-0.1,0.8-0.2c0.1,0,0.3,0,0.4,0
			c0,0,0.1,0,0.1,0c0,0,0.1,0,0.1,0c0,0,0.1,0,0.1,0c0,0,0.1,0,0.1,0c0,0,0.1,0,0.1,0c0,0,0.1,0,0.1,0c0,0,0.1,0,0.1,0
			c0,0,0.1,0,0.1,0c0,0,0.1,0,0.1,0c0,0,0.1,0,0.1,0c0,0,0.1,0,0.1,0.1c0,0,0.1,0,0.1,0.1c0,0,0.1,0,0.1,0.1s0.1,0,0.1,0.1
			c0,0,0.1,0,0.1,0.1c0,0,0.1,0,0.1,0.1c0,0,0.1,0.1,0.1,0.1c0,0,0.1,0.1,0.1,0.1c0,0,0.1,0.1,0.1,0.1c0,0,0.1,0.1,0.1,0.1
			c0,0,0.1,0.1,0.1,0.1c0,0,0.1,0.1,0.1,0.1c0,0,0.1,0.1,0.1,0.1c0,0,0.1,0.1,0.1,0.1c0,0,0.1,0.1,0.1,0.1c0,0,0.1,0.1,0.1,0.1
			c0,0,0.1,0.1,0.1,0.1c0,0,0.1,0.1,0.1,0.1c0,0,0.1,0.1,0.1,0.1c0,0,0.1,0.1,0.1,0.1c0,0,0.1,0.1,0.1,0.1c0,0,0.1,0.1,0.1,0.1
			c0,0,0.1,0.1,0.1,0.1c0,0,0.1,0.1,0.1,0.1c0,0,0.1,0.1,0.1,0.1c0,0,0.1,0.1,0.1,0.1c0,0,0.1,0.1,0.1,0.1c0,0,0.1,0.1,0.1,0.1
			c0,0,0.1,0.1,0.1,0.1c0,0,0.1,0.1,0.1,0.1c0,0,0.1,0.1,0.1,0.1c0,0,0.1,0.1,0.1,0.1c0,0,0.1,0.1,0.1,0.1c0,0,0.1,0.1,0.1,0.1
			c0,0,0.1,0.1,0.1,0.1c0,0,0.1,0.1,0.1,0.1c0,0,0.1,0.1,0.1,0.1c0,0,0,0.1,0.1,0.1c0,0,0.1,0.1,0.1,0.1c0,0,0,0.1,0.1,0.1
			c0,0,0.1,0.1,0.1,0.1c0,0,0,0.1,0.1,0.1c0,0,0,0.1,0.1,0.1c0,0,0,0.1,0.1,0.1c0,0,0,0.1,0.1,0.1c0,0,0,0.1,0.1,0.1
			c0,0,0,0.1,0.1,0.1c0,0,0,0.1,0,0.1c0,0,0,0.1,0.1,0.1c0,0,0,0.1,0,0.1c0,0.1,0.1,0.1,0.1,0.2c0,0,0,0,0,0c0,0.1,0.1,0.1,0.1,0.2
			c0.5,0.1,1.1,0.2,1.6,0.3c0,0,0,0,0,0l0,0c0.6,0.2,1.2,0.4,1.7,0.8l0,0c0.2,0.1,0.3,0.2,0.5,0.3l0,0c0,0,0.1,0.1,0.1,0.1l0,0
			c0.1,0.1,0.3,0.2,0.4,0.3l0,0c0,0,0.1,0.1,0.1,0.1l0,0c0,0,0.1,0.1,0.1,0.1c0.1,0.1,0.3,0.2,0.4,0.3C41.7,21.8,42.1,22.4,42.5,23z
			"/>
	</g>
	<g id="Blue_7451C">
		<path class="st1" d="M20.8,24.3C20.8,24.3,20.8,24.3,20.8,24.3C20.7,24.3,20.7,24.3,20.8,24.3c-0.1,0-0.2,0-0.3,0c0,0,0,0,0,0
			c-0.4-1.1-1-2.2-1.9-3.1c-0.9-0.9-1.9-1.5-3.1-1.9c0,0,0,0,0,0l0,0c0-0.1,0-0.2,0-0.2v0c0-0.1,0-0.2,0-0.3c0,0,0,0,0,0
			c0-0.1,0-0.2,0-0.3c0,0,0,0,0,0c0-0.1,0-0.2,0.1-0.3c0,0,0,0,0,0c0-0.1,0-0.2,0.1-0.3c0,0,0,0,0,0c0-0.1,0.1-0.2,0.1-0.3
			c0,0,0,0,0,0c0-0.1,0.1-0.2,0.1-0.3c0,0,0,0,0,0c0-0.1,0.1-0.2,0.1-0.3c0,0,0,0,0,0c0-0.1,0.1-0.2,0.1-0.3c0,0,0,0,0,0
			c0.1-0.1,0.1-0.2,0.2-0.3c0,0,0,0,0,0c0.1-0.1,0.1-0.2,0.2-0.2c0,0,0,0,0,0c0.1-0.1,0.1-0.1,0.2-0.2c0,0,0,0,0,0
			c0.1-0.1,0.1-0.1,0.2-0.2c0,0,0,0,0,0c0.1,0,0.1-0.1,0.2-0.1c0,0,0,0,0,0c0.1,0,0.1-0.1,0.2-0.1c0,0,0,0,0,0c0.1,0,0.1,0,0.2,0
			c0,0,0,0,0,0c0,0,0,0,0,0c1.4,0.1,3,1.4,4.3,2.7c1.3,1.3,2.6,2.8,2.7,4.3c0,0.1,0,0.1,0,0.2c0,0,0,0,0,0c0,0.1,0,0.1-0.1,0.2
			c0,0,0,0,0,0l0,0c0.1,0.1,0.2,0.2,0.3,0.2c0.1,0,0.1,0.1,0.2,0.1c0.5,0.3,1,0.5,1.6,0.6c0.1,0,0.2,0,0.3,0
			c0.2-0.3,0.3-0.6,0.3-0.9c-0.1-2.1-1.7-4.5-3.6-6.5c-1.9-1.9-4.4-3.5-6.5-3.6c0,0-0.1,0-0.1,0c0,0-0.1,0-0.1,0c0,0-0.1,0-0.1,0
			c0,0-0.1,0-0.1,0c0,0-0.1,0-0.1,0c0,0-0.1,0-0.1,0c0,0-0.1,0-0.1,0c0,0-0.1,0-0.1,0c0,0-0.1,0-0.1,0c0,0-0.1,0-0.1,0
			c0,0-0.1,0-0.1,0.1c0,0-0.1,0-0.1,0.1c0,0-0.1,0-0.1,0.1c0,0-0.1,0-0.1,0.1c0,0-0.1,0-0.1,0.1c0,0-0.1,0-0.1,0.1
			c0,0-0.1,0.1-0.1,0.1c0,0-0.1,0.1-0.1,0.1c0,0-0.1,0.1-0.1,0.1c0,0-0.1,0.1-0.1,0.1c0,0-0.1,0.1-0.1,0.1c0,0-0.1,0.1-0.1,0.1
			c0,0-0.1,0.1-0.1,0.1c0,0-0.1,0.1-0.1,0.1c0,0-0.1,0.1-0.1,0.1c0,0-0.1,0.1-0.1,0.1c0,0-0.1,0.1-0.1,0.1c0,0-0.1,0.1-0.1,0.1
			c0,0-0.1,0.1-0.1,0.1c0,0-0.1,0.1-0.1,0.1c0,0-0.1,0.1-0.1,0.1c0,0-0.1,0.1-0.1,0.1c0,0-0.1,0.1-0.1,0.1c0,0-0.1,0.1-0.1,0.1
			c0,0-0.1,0.1-0.1,0.1c0,0-0.1,0.1-0.1,0.1c0,0-0.1,0.1-0.1,0.1c0,0-0.1,0.1-0.1,0.1c0,0-0.1,0.1-0.1,0.1c0,0-0.1,0.1-0.1,0.1
			c0,0-0.1,0.1-0.1,0.1c0,0-0.1,0.1-0.1,0.1c0,0-0.1,0.1-0.1,0.1c0,0-0.1,0.1-0.1,0.1c0,0-0.1,0.1-0.1,0.1c0,0,0,0.1-0.1,0.1
			c0,0-0.1,0.1-0.1,0.1c0,0,0,0.1-0.1,0.1c0,0-0.1,0.1-0.1,0.1c0,0,0,0.1-0.1,0.1c0,0-0.1,0.1-0.1,0.1c0,0,0,0.1-0.1,0.1
			c0,0,0,0.1-0.1,0.1c0,0,0,0.1-0.1,0.1c0,0,0,0.1-0.1,0.1c0,0,0,0.1-0.1,0.1c0,0,0,0.1-0.1,0.1c0,0,0,0.1,0,0.1c0,0,0,0.1-0.1,0.1
			c0,0,0,0.1,0,0.1c0,0.1,0,0.1-0.1,0.2c0,0,0,0,0,0.1c0,0.1-0.1,0.1-0.1,0.2c-1.8,0.2-3.5,1-4.9,2.4c-2.2,2.2-2.9,5.3-2.1,8.1
			c0.2,0.6,0.8,1.7,2.4,3.3c1.6,1.6,2.7,2.2,3.3,2.4c0.2,0.1,0.4,0.1,0.5,0.1c0.1,0,0.1,0,0.2,0c0.1,0,0.2,0,0.4,0.1
			c0.1,0,0.1,0,0.2,0c0.1,0,0.2,0,0.3,0c0.1,0,0.2,0,0.2,0c0.1,0,0.2,0,0.3,0c0.2,0,0.3,0,0.5,0c0,0,0,0,0.1,0c0.1,0,0.3,0,0.4,0
			c0,0,0.1,0,0.1,0c0.1,0,0.2,0,0.4-0.1c0,0,0.1,0,0.1,0c0.2,0,0.3-0.1,0.5-0.1c0,0,0.1,0,0.1,0c0.1,0,0.3-0.1,0.4-0.1
			c0,0,0.1,0,0.1,0c0.1,0,0.3-0.1,0.4-0.1c0,0,0.1,0,0.1,0c0.2-0.1,0.3-0.1,0.4-0.2c0,0,0.1,0,0.1-0.1c0.1-0.1,0.2-0.1,0.3-0.2
			c0,0,0.1,0,0.1-0.1c0.1-0.1,0.3-0.1,0.4-0.2c0,0,0,0,0.1,0c0.1-0.1,0.3-0.2,0.4-0.3c0,0,0.1-0.1,0.1-0.1c0.1-0.1,0.2-0.2,0.3-0.2
			c0,0,0.1-0.1,0.1-0.1c0.1-0.1,0.3-0.2,0.4-0.4c1.4-1.4,2.2-3.1,2.4-4.9c0.1-0.1,0.3-0.1,0.4-0.2c0.1,0,0.1-0.1,0.2-0.1
			c0.2-0.1,0.3-0.2,0.5-0.2c0.1,0,0.2-0.1,0.2-0.1c0.2-0.1,0.3-0.2,0.5-0.3s0.3-0.2,0.5-0.3c0,0,0,0,0.1,0
			C22.4,26,21.4,25.2,20.8,24.3z M14.5,15.9c0.6-1.1,1.3-2.1,2.5-2.7c0.7-0.2,1.3,0,1.9,0.3c0.5,0.3,1,0.6,1.5,1
			c0.1,0,0.1,0.1,0,0.2c0,0-0.1,0.1-0.2,0c-3-1.8-3.4-1.2-5.5,1.3C14.6,16.2,14.4,16,14.5,15.9z M18.8,29.6
			c-0.6,2.9-3.7,4.6-6.5,4.5c-0.2,0-0.2-0.2,0-0.3c2.6-0.3,5.3-1.7,6.3-4.3C18.6,29.4,18.9,29.5,18.8,29.6z"/>
	</g>
	<g id="Red_185C">
		<path class="st2" d="M40.6,20.8L40.6,20.8c0,0-0.1-0.1-0.1-0.1l0,0c-0.1-0.1-0.3-0.2-0.4-0.3l0,0c0,0-0.1-0.1-0.1-0.1l0,0
			c-0.2-0.1-0.3-0.2-0.5-0.3l0,0c-0.5-0.3-1.1-0.6-1.7-0.8l0,0c0,0,0,0,0,0c-0.5-0.2-1.1-0.3-1.6-0.3c0-0.1-0.1-0.1-0.1-0.2
			c0,0,0,0,0,0c0-0.1,0-0.1-0.1-0.2c0,0,0-0.1,0-0.1c0,0,0-0.1-0.1-0.1c0,0,0-0.1,0-0.1c0,0,0-0.1-0.1-0.1c0,0,0-0.1-0.1-0.1
			c0,0,0-0.1-0.1-0.1c0,0,0-0.1-0.1-0.1c0,0,0-0.1-0.1-0.1c0,0,0-0.1-0.1-0.1c0,0,0-0.1-0.1-0.1c0,0,0-0.1-0.1-0.1
			c0,0-0.1-0.1-0.1-0.1c0,0,0-0.1-0.1-0.1c0,0-0.1-0.1-0.1-0.1c0,0-0.1-0.1-0.1-0.1c0,0-0.1-0.1-0.1-0.1c0,0-0.1-0.1-0.1-0.1
			c0,0-0.1-0.1-0.1-0.1c0,0-0.1-0.1-0.1-0.1c0,0-0.1-0.1-0.1-0.1c0,0-0.1-0.1-0.1-0.1c0,0-0.1-0.1-0.1-0.1c0,0-0.1-0.1-0.1-0.1
			c0,0-0.1-0.1-0.1-0.1c0,0-0.1-0.1-0.1-0.1c0,0-0.1-0.1-0.1-0.1c0,0-0.1-0.1-0.1-0.1c0,0-0.1-0.1-0.1-0.1c0,0-0.1-0.1-0.1-0.1
			c0,0-0.1-0.1-0.1-0.1c0,0-0.1-0.1-0.1-0.1c0,0-0.1-0.1-0.1-0.1c0,0-0.1-0.1-0.1-0.1c0,0-0.1-0.1-0.1-0.1c0,0-0.1-0.1-0.1-0.1
			c0,0-0.1-0.1-0.1-0.1c0,0-0.1-0.1-0.1-0.1c0,0-0.1-0.1-0.1-0.1s-0.1-0.1-0.1-0.1c0,0-0.1-0.1-0.1-0.1c0,0-0.1-0.1-0.1-0.1
			c0,0-0.1-0.1-0.1-0.1c0,0-0.1-0.1-0.1-0.1c0,0-0.1-0.1-0.1-0.1c0,0-0.1,0-0.1-0.1c0,0-0.1-0.1-0.1-0.1c0,0-0.1,0-0.1-0.1
			c0,0-0.1,0-0.1-0.1c0,0-0.1,0-0.1-0.1c0,0-0.1,0-0.1-0.1c0,0-0.1,0-0.1,0c0,0-0.1,0-0.1,0c0,0-0.1,0-0.1,0c0,0-0.1,0-0.1,0
			c0,0-0.1,0-0.1,0c0,0-0.1,0-0.1,0c0,0-0.1,0-0.1,0c0,0-0.1,0-0.1,0c0,0-0.1,0-0.1,0c0,0-0.1,0-0.1,0c-0.1,0-0.3,0-0.4,0
			c-0.3,0-0.5,0.1-0.8,0.2c-0.4,0.1-0.8,0.3-1.2,0.5c-0.3,0.1-0.6,0.3-0.8,0.4c-0.3,0.2-0.6,0.3-0.8,0.5c-0.4,0.3-0.8,0.6-1.2,0.9
			c-0.1,0.1-0.3,0.2-0.4,0.3c-0.3,0.2-0.5,0.5-0.7,0.7c0.6,0.6,1.1,1.3,1.5,1.9c0.1-0.1,0.1-0.1,0.2-0.2c1.3-1.3,2.8-2.6,4.3-2.7
			c0,0,0,0,0,0c0,0,0,0,0,0c0.1,0,0.1,0,0.2,0c0,0,0,0,0,0c0.1,0,0.1,0,0.2,0.1c0,0,0,0,0,0c0.1,0,0.1,0.1,0.2,0.1c0,0,0,0,0,0
			c0.1,0.1,0.1,0.1,0.2,0.2c0,0,0,0,0,0c0.1,0.1,0.1,0.1,0.2,0.2c0,0,0,0,0,0c0.1,0.1,0.1,0.2,0.2,0.2c0,0,0,0,0,0
			c0.1,0.1,0.1,0.2,0.2,0.3c0,0,0,0,0,0c0,0.1,0.1,0.2,0.1,0.3c0,0,0,0,0,0c0,0.1,0.1,0.2,0.1,0.3c0,0,0,0,0,0
			c0,0.1,0.1,0.2,0.1,0.3c0,0,0,0,0,0c0,0.1,0.1,0.2,0.1,0.3c0,0,0,0,0,0c0,0.1,0.1,0.2,0.1,0.3c0,0,0,0,0,0c0,0.1,0,0.2,0.1,0.3
			c0,0,0,0,0,0c0,0.1,0,0.2,0,0.3c0,0,0,0,0,0c0,0.1,0,0.2,0,0.3v0c0,0.1,0,0.2,0,0.2l0,0c0,0,0,0,0,0c-0.1,0-0.2,0.1-0.4,0.1l0,0
			c-0.7,0.3-1.4,0.7-2.1,1.2c-0.2,0.2-0.4,0.4-0.6,0.6c-0.4,0.4-0.8,0.9-1.2,1.4c-0.3,0.5-0.6,1.1-0.8,1.6c0,0,0,0,0,0l0,0
			c-0.1,0-0.1,0-0.2,0l0,0c0,0,0,0,0,0c0,0,0,0-0.1,0c0,0-0.1,0-0.1,0c0,0,0,0,0,0c0,0,0,0,0,0c-0.1,0-0.2,0-0.2,0c0,0,0,0,0,0
			c-0.1,0-0.2,0-0.3,0c0,0,0,0,0,0c0,0-0.1,0-0.1,0c0,0-0.1,0-0.1,0c0,0,0,0,0,0c0,0,0,0,0,0c-0.1,0-0.1,0-0.2-0.1c0,0,0,0,0,0
			c-0.1,0-0.2,0-0.2-0.1c0,0,0,0,0,0c0,0,0,0,0,0c-0.1,0-0.2-0.1-0.3-0.1c0,0,0,0,0,0c-0.1,0-0.2-0.1-0.3-0.1c0,0,0,0,0,0
			c0,0,0,0,0,0c-0.1,0-0.2-0.1-0.2-0.1c0,0,0,0,0,0c-0.1,0-0.2-0.1-0.2-0.1c0,0,0,0,0,0c-0.1,0-0.1-0.1-0.2-0.1c0,0,0,0,0,0
			c-0.1-0.1-0.1-0.1-0.2-0.2l0,0c0,0,0,0,0,0c0,0,0,0,0,0l0,0c-0.1-0.1-0.1-0.1-0.2-0.2c0,0,0,0,0,0c0,0,0,0,0,0
			c0-0.1-0.1-0.1-0.1-0.2c0,0,0,0,0,0c0-0.1-0.1-0.1-0.1-0.2c0,0,0,0,0,0l0,0c0,0,0,0,0,0l0,0c0-0.1,0-0.1-0.1-0.2c0,0,0,0,0,0
			c0-0.1,0-0.1,0-0.2l0,0c0-0.2,0.1-0.4,0.1-0.6l0,0c0,0,0-0.1,0-0.1c-0.3-0.7-0.9-1.5-1.5-2.2c-0.1,0.2-0.2,0.4-0.3,0.6
			c-0.1,0.2-0.2,0.5-0.3,0.7c-0.2,0.4-0.3,0.7-0.4,1.1c-0.1,0.4-0.2,0.7-0.2,1.1c-0.1,1.4,2.9,3.6,5.1,4.7c0.2,0.1,0.3,0.2,0.5,0.2
			c0.1,0,0.2,0.1,0.2,0.1c0.1,0.1,0.3,0.1,0.4,0.2c0.1,1.1,0.5,2.2,1.1,3.2c0.2,0.4,0.5,0.8,0.8,1.2c0.2,0.2,0.3,0.4,0.5,0.5
			c0.1,0.1,0.2,0.2,0.4,0.4c0,0,0.1,0.1,0.1,0.1c0.1,0.1,0.2,0.2,0.3,0.2c0,0,0.1,0.1,0.1,0.1c0.1,0.1,0.3,0.2,0.4,0.3
			c0,0,0,0,0.1,0c0.1,0.1,0.2,0.2,0.4,0.2c0,0,0.1,0,0.1,0.1c0.1,0,0.2,0.1,0.2,0.1c0,0,0.1,0,0.1,0c0,0,0.1,0,0.1,0.1
			c0.1,0.1,0.3,0.1,0.4,0.2c0,0,0.1,0,0.1,0c0.1,0,0.2,0.1,0.4,0.1c0,0,0.1,0,0.1,0c0,0,0,0,0,0c0.1,0,0.2,0.1,0.3,0.1
			c0,0,0.1,0,0.1,0c0.2,0,0.3,0.1,0.5,0.1c0,0,0.1,0,0.1,0c0.1,0,0.2,0,0.4,0.1c0,0,0.1,0,0.1,0c0.1,0,0.3,0,0.4,0c0,0,0,0,0.1,0
			c0.2,0,0.3,0,0.5,0c0.1,0,0.2,0,0.3,0c0.1,0,0.2,0,0.2,0c0.1,0,0.2,0,0.3,0c0.1,0,0.1,0,0.2,0c0.1,0,0.2,0,0.4-0.1
			c0.1,0,0.1,0,0.2,0c0.2,0,0.4-0.1,0.5-0.1c0.1,0,0.3-0.1,0.5-0.2c0.1,0,0.1-0.1,0.2-0.1c0.1,0,0.1-0.1,0.2-0.1
			c0.1-0.1,0.3-0.2,0.4-0.3c0.1,0,0.1-0.1,0.2-0.2c0.1-0.1,0.3-0.2,0.5-0.4c0.1-0.1,0.2-0.1,0.2-0.2c0,0,0.1-0.1,0.1-0.1
			c0,0,0.1-0.1,0.1-0.1c0.1-0.1,0.2-0.2,0.3-0.2c0.2-0.2,0.4-0.4,0.6-0.6c0.6-0.6,1.1-1.1,1.4-1.6c0.6-0.8,0.9-1.4,1-1.7
			c0.6-2.1,0.3-4.4-0.7-6.3c-0.4-0.6-0.8-1.2-1.4-1.8C41,21.1,40.8,21,40.6,20.8C40.7,20.9,40.7,20.8,40.6,20.8z M27.8,14.8
			c-0.1,0.1-0.3-0.1-0.2-0.2c2.8-2.4,4.2-1.6,5.9,1.3c0.1,0.1-0.1,0.3-0.2,0.1C31.1,13.5,30.8,13,27.8,14.8z M35.7,34.1
			c-2.5,0.1-5.1-1.1-6.2-3.4c-0.1-0.3-0.3-0.7-0.3-1c0-0.1,0-0.1,0.1-0.1c0.1,0,0.1,0,0.1,0.1c1,2.6,3.7,4,6.3,4.3
			C35.8,33.9,35.8,34.1,35.7,34.1z"/>
	</g>
	<g id="White">
		<path class="st3" d="M33.5,15.9c-1.7-2.9-3.1-3.7-5.9-1.3c-0.1,0.1,0,0.3,0.2,0.2c3-1.8,3.4-1.3,5.5,1.3
			C33.4,16.2,33.6,16,33.5,15.9z"/>
		<path class="st3" d="M35.7,33.8c-2.6-0.3-5.3-1.7-6.3-4.3c0-0.1-0.1-0.1-0.1-0.1c-0.1,0-0.1,0.1-0.1,0.1c0.1,0.4,0.2,0.7,0.3,1
			c1.1,2.3,3.7,3.5,6.2,3.4C35.8,34.1,35.8,33.9,35.7,33.8z"/>
		<path class="st3" d="M14.7,16c2.2-2.5,2.5-3.1,5.5-1.3c0.1,0,0.1,0,0.2,0c0-0.1,0-0.1,0-0.2c-0.4-0.4-0.9-0.8-1.5-1
			c-0.6-0.3-1.2-0.5-1.9-0.3c-1.2,0.5-1.9,1.6-2.5,2.7C14.4,16,14.6,16.2,14.7,16z"/>
		<path class="st3" d="M18.6,29.6c-1,2.6-3.7,4-6.3,4.3c-0.2,0-0.1,0.3,0,0.3c2.8,0.1,5.9-1.5,6.5-4.5
			C18.9,29.5,18.6,29.4,18.6,29.6z"/>
	</g>
</g>
</svg>
