<svg id="Layer_1" data-name="Layer 1" xmlns="http://www.w3.org/2000/svg" viewBox="0 0 70.29 122.88"><defs><style>.cls-1{fill-rule:evenodd;}</style></defs><title>download-app</title><path class="cls-1" d="M13.26,0H57A13.26,13.26,0,0,1,70.29,13.26v96.36A13.26,13.26,0,0,1,57,122.88H13.26A13.25,13.25,0,0,1,0,109.62V13.26A13.26,13.26,0,0,1,13.26,0Zm-.34,79.38,0-10.91a2.79,2.79,0,1,1,5.58,0l0,8q16.63,0,33.25,0l0-8a2.79,2.79,0,1,1,5.58,0l0,10.87h0a2.79,2.79,0,0,1-2.76,2.67q-19.44,0-38.85,0a2.79,2.79,0,0,1-2.76-2.67Zm30.6-24.07a2.79,2.79,0,0,1,3.91,4L36.83,69.76a2.79,2.79,0,0,1-3.92,0L22.47,59.45a2.79,2.79,0,1,1,3.91-4l5.75,5.7,0-20.08a2.8,2.8,0,0,1,5.59,0l-.06,19.91,5.81-5.74Zm23.57,49.36v-91H3.18v91l63.91,0Z"/></svg>