<?xml version="1.0" encoding="utf-8"?>
<!-- Generator: Adobe Illustrator 26.0.3, SVG Export Plug-In . SVG Version: 6.00 Build 0)  -->
<svg version="1.1" id="Layer_1" xmlns="http://www.w3.org/2000/svg" xmlns:xlink="http://www.w3.org/1999/xlink" x="0px" y="0px"
	 viewBox="0 0 1024 1024" style="enable-background:new 0 0 1024 1024;" xml:space="preserve">
<style type="text/css">
	.st0{fill:#8A909C;}
	.st1{fill:#FFFFFF;}
</style>
<g>
	<path class="st0" d="M967.5-1828.6h-911c-31.2,0-56.5,25.3-56.5,56.5v911c0,31.2,25.3,56.5,56.5,56.5H547v-396H414v-155h133v-114.1
		c0-132.3,80.8-204.3,198.8-204.3c56.5,0,105.1,4.2,119.2,6.1v138.2h-81.4c-64.2,0-76.6,30.5-76.6,75.3v98.7h153.5l-20,155H707v396
		h260.5c31.2,0,56.5-25.3,56.5-56.5v-911C1024-1803.3,998.7-1828.6,967.5-1828.6z"/>
	<path id="f_1_" class="st1" d="M707-804.6v-396h133.5l20-155H707v-98.7c0-44.8,12.4-75.3,76.6-75.3H865v-138.2
		c-14.2-1.9-62.7-6.1-119.2-6.1c-118,0-198.8,72-198.8,204.3v114.1H414v155h133v396h160V-804.6z"/>
</g>
<path d="M512,0C229.2,0,0,229.2,0,512c0,255.5,187.2,467.4,432,505.8V660H302V512h130V399.2c0-46.1,9.9-84.8,27.9-115.5
	c0.8-1.3,1.6-2.7,2.4-4c1.6-2.6,3.3-5.1,5.1-7.6c4.4-6.2,9.2-12,14.3-17.5c11.3-11.9,24.3-22,38.9-30.1
	c14.6-8.1,30.7-14.2,48.3-18.4c3.2-0.7,6.4-1.4,9.7-2s6.6-1.2,10-1.6c3.4-0.5,6.8-0.9,10.2-1.2c8.6-0.9,17.5-1.3,26.7-1.3
	c56,0,114.6,10,114.6,10v126h-64.6c-2,0-3.9,0-5.8,0.1c-3.8,0.2-7.4,0.5-10.9,0.9c-5.2,0.7-10.1,1.6-14.6,2.9
	c-3.8,1.1-7.3,2.3-10.5,3.7c-2.6,1.1-5.1,2.4-7.4,3.8c-3.5,2-6.7,4.3-9.6,6.8c-0.5,0.4-1,0.8-1.4,1.3c-0.9,0.8-1.8,1.7-2.7,2.6
	c-0.4,0.4-0.9,0.9-1.3,1.4c-0.8,0.9-1.6,1.8-2.4,2.8c-0.8,1-1.5,1.9-2.2,2.9s-1.4,2-2.1,3c-0.3,0.5-0.6,1-1,1.6
	c-0.6,1-1.2,2.1-1.8,3.2c-0.3,0.5-0.6,1.1-0.8,1.6c-0.5,1.1-1.1,2.2-1.5,3.3c-0.5,1.1-0.9,2.2-1.4,3.4c-0.4,1.1-0.8,2.3-1.2,3.5
	c-0.2,0.6-0.4,1.2-0.6,1.8c-0.4,1.2-0.7,2.4-1,3.6c-1.2,4.8-2.1,9.7-2.6,14.7c-0.1,1.2-0.2,2.5-0.3,3.8c-0.2,2.5-0.2,5-0.2,7.6v96
	h142l-22.7,148H592v357.8c244.8-38.4,432-250.3,432-505.8C1024,229.2,794.8,0,512,0z"/>
</svg>
