<?xml version="1.0" encoding="utf-8"?>
<!-- Generator: Adobe Illustrator 26.3.1, SVG Export Plug-In . SVG Version: 6.00 Build 0)  -->
<svg version="1.1" id="Layer_1" xmlns="http://www.w3.org/2000/svg" xmlns:xlink="http://www.w3.org/1999/xlink" x="0px" y="0px"
	 viewBox="0 0 396 142.9" style="enable-background:new 0 0 396 142.9;" xml:space="preserve">
<style type="text/css">
	.st0{fill:#002E6D;}
	.st1{fill:#87A9E2;}
	.st2{fill:#EA0029;}
	.st3{fill:#FFFFFF;}
</style>
<g>
	<g id="Navy_294C">
		<path class="st0" d="M180.4,78.5h-3.47c-6.47,0-9.29,2.88-9.29,9.71v22.53c0,5.81,3.06,8.57,9.29,8.57h3.47
			c7.97,0,10.48-2.22,10.54-9.29v-5.87h-8.93v6.29c0,1.14-0.78,1.68-2.4,1.68c-1.62,0-2.4-0.54-2.4-1.68V87.42
			c0-1.2,0.78-1.74,2.46-1.74c1.56,0,2.34,0.54,2.34,1.74v5.21h8.93v-7.31C190.88,80.35,188.13,78.56,180.4,78.5z"/>
		<polygon class="st0" points="211.79,94.55 206.4,94.55 206.4,78.92 197.17,78.92 197.17,118.87 206.4,118.87 206.4,101.74 
			211.79,101.74 211.79,118.87 221.02,118.87 221.02,78.92 211.79,78.92 		"/>
		<path class="st0" d="M232.7,78.92l-6.05,39.96h9.41l1.2-9.59h5.99l1.2,9.59h9.41l-6.11-39.96H232.7z M238.03,102.46l2.16-18.03
			h0.12l2.16,18.03H238.03z"/>
		<path class="st0" d="M270.44,78.92H259v39.96h9.23V105.1h1.56c3.12,0,4.13,0.6,4.13,2.34v11.44h9.23v-10.9
			c-0.12-4.25-1.26-5.45-6.29-6.47v-0.12c4.67-0.78,6.23-2.82,6.29-8.15v-4.79C283.14,80.95,280.44,78.92,270.44,78.92z
			 M273.91,94.73c0,2.82-0.72,3.47-3.89,3.47h-1.8V85.74h2.82c2.04,0,2.88,0.9,2.88,3V94.73z"/>
		<polygon class="st0" points="298.95,78.92 289.73,78.92 289.73,118.87 307.94,118.87 307.94,111.69 298.95,111.69 		"/>
		<polygon class="st0" points="309.5,86.1 315.97,86.1 315.97,118.87 325.19,118.87 325.19,86.1 331.66,86.1 331.66,78.92 
			309.5,78.92 		"/>
		<path class="st0" d="M348.97,78.5c-8.63,0-11.98,2.28-11.98,8.21v24.38c0,5.93,3.29,8.21,11.92,8.21c8.69,0,12.04-2.28,12.04-8.21
			V86.7C360.96,80.77,357.6,78.5,348.97,78.5z M351.37,110.61c0,1.38-0.6,1.86-2.34,1.86c-1.86,0-2.46-0.42-2.46-1.86V87.18
			c0-1.44,0.6-1.86,2.4-1.86c1.8,0,2.4,0.48,2.4,1.86V110.61z"/>
		<polygon class="st0" points="388.09,109.95 387.97,110.07 381.2,78.92 367.72,78.92 367.72,118.87 376.23,118.87 375.69,87.72 
			375.81,87.72 382.52,118.87 396,118.87 396,78.92 387.43,78.92 		"/>
		<path class="st0" d="M181.58,23.61h-3.8c-7.07,0-10.15,3.14-10.15,10.61v24.62c0,6.35,3.34,9.36,10.15,9.36h3.8
			c8.71,0,11.46-2.42,11.52-10.15v-6.42h-9.75v6.87c0,1.24-0.85,1.83-2.62,1.83c-1.77,0-2.62-0.59-2.62-1.83V33.36
			c0-1.31,0.85-1.9,2.68-1.9c1.7,0,2.55,0.59,2.55,1.9v5.7h9.75v-7.99C193.04,25.64,190.03,23.67,181.58,23.61z"/>
		<path class="st0" d="M212.49,24.07h-12.5v43.67h10.08V52.67h1.7c3.4,0,4.52,0.65,4.52,2.55v12.5h10.08V55.82
			c-0.13-4.65-1.37-5.96-6.87-7.07v-0.13c5.11-0.85,6.81-3.08,6.87-8.9v-5.24C226.36,26.29,223.42,24.07,212.49,24.07z
			 M216.28,41.35c0,3.08-0.79,3.8-4.25,3.8h-1.96V31.53h3.08c2.23,0,3.14,0.98,3.14,3.27V41.35z"/>
		<path class="st0" d="M259.36,32.58c0-6.48-3.67-8.97-13.09-8.97c-9.43,0-13.09,2.49-13.09,8.97v26.64c0,6.48,3.6,8.97,13.03,8.97
			c9.49,0,13.16-2.49,13.16-8.97V32.58z M248.89,58.7c0,1.51-0.65,2.03-2.55,2.03c-2.03,0-2.68-0.46-2.68-2.03V33.1
			c0-1.57,0.66-2.03,2.62-2.03c1.96,0,2.62,0.52,2.62,2.03V58.7z"/>
		<path class="st0" d="M279.46,41.09c-3.14-0.72-3.73-1.31-3.73-3.99v-2.88c0-2.55,0.52-3.14,3.08-3.14c2.36,0,2.68,0.46,2.68,4.19
			v2.1h8.97v-5.24c0-6.42-3.08-8.51-12.44-8.51c-9.82,0-12.05,2.09-12.05,11.19v2.68c0.06,8.25,1.51,9.75,11.13,11.91
			c3.8,0.98,4.25,1.44,4.25,4.06v4.71c0,1.9-0.79,2.55-3.01,2.55c-2.62,0-3.01-0.59-3.01-4.19v-3.14h-9.36v3.6
			c0,9.03,2.49,11.19,12.77,11.19c10.08,0,12.7-2.68,12.7-13.22C291.44,45.15,290.27,43.77,279.46,41.09z"/>
		<path class="st0" d="M310.69,68.19c10.08,0,12.7-2.68,12.7-13.22c0-9.82-1.18-11.19-11.98-13.88c-3.14-0.72-3.73-1.31-3.73-3.99
			v-2.88c0-2.55,0.52-3.14,3.08-3.14c2.36,0,2.68,0.46,2.68,4.19v2.1h8.97v-5.24c0-6.42-3.08-8.51-12.44-8.51
			c-9.82,0-12.05,2.09-12.05,11.19v2.68c0.06,8.25,1.51,9.75,11.13,11.91c3.8,0.98,4.25,1.44,4.25,4.06v4.71
			c0,1.9-0.79,2.55-3.01,2.55c-2.62,0-3.01-0.59-3.01-4.19v-3.14h-9.36v3.6C297.93,66.03,300.41,68.19,310.69,68.19z"/>
		<polygon class="st0" points="340.61,50.58 348.8,50.58 348.8,42.72 340.61,42.72 340.61,31.92 349.58,31.92 349.58,24.07 
			330.53,24.07 330.53,67.73 340.61,67.73 		"/>
		<rect x="355.54" y="24.07" class="st0" width="10.08" height="43.67"/>
		<polygon class="st0" points="371.78,24.07 371.78,31.92 378.85,31.92 378.85,67.73 388.93,67.73 388.93,31.92 396,31.92 
			396,24.07 		"/>
		<path class="st0" d="M71.45,0C32.05,0,0,32.05,0,71.45c0,11.97,3.02,23.8,8.72,34.23c12.55,22.96,36.59,37.22,62.73,37.22
			c28.78,0,54.62-17.13,65.84-43.64c3.73-8.81,5.61-18.17,5.61-27.81C142.9,32.05,110.85,0,71.45,0z M132.82,97.38
			c-10.45,24.71-34.54,40.68-61.37,40.68c-24.37,0-46.77-13.29-58.48-34.69C7.66,93.64,4.85,82.6,4.85,71.45
			c0-36.73,29.88-66.61,66.61-66.61c36.73,0,66.61,29.88,66.61,66.61C138.06,80.44,136.3,89.16,132.82,97.38z"/>
		<path class="st0" d="M71.45,6.42c-35.86,0-65.03,29.17-65.03,65.03c0,10.89,2.74,21.66,7.94,31.16
			c11.43,20.89,33.31,33.87,57.1,33.87c26.2,0,49.72-15.59,59.92-39.72c3.39-8.02,5.11-16.53,5.11-25.31
			C136.48,35.59,107.31,6.42,71.45,6.42z M69.57,78.83c-0.47,0.3-0.94,0.58-1.41,0.85s-0.92,0.53-1.37,0.78
			c-0.22,0.12-0.45,0.24-0.67,0.36c-0.44,0.23-0.86,0.45-1.27,0.65c-0.21,0.1-0.41,0.19-0.6,0.29c-0.39,0.18-0.77,0.34-1.12,0.49
			c-0.54,4.88-2.67,9.61-6.41,13.35c-0.33,0.33-0.68,0.65-1.02,0.95c-0.1,0.09-0.2,0.18-0.31,0.26c-0.27,0.23-0.54,0.45-0.81,0.66
			c-0.1,0.08-0.2,0.15-0.3,0.23c-0.36,0.27-0.73,0.54-1.11,0.78c-0.05,0.03-0.09,0.06-0.14,0.09c-0.33,0.22-0.67,0.42-1.02,0.62
			c-0.12,0.07-0.23,0.13-0.35,0.19c-0.3,0.17-0.61,0.33-0.92,0.48c-0.1,0.05-0.19,0.1-0.29,0.14c-0.4,0.19-0.81,0.37-1.21,0.53
			c-0.08,0.03-0.16,0.06-0.24,0.09c-0.34,0.13-0.68,0.25-1.02,0.37c-0.12,0.04-0.25,0.08-0.37,0.12c-0.34,0.11-0.68,0.2-1.02,0.29
			c-0.09,0.02-0.17,0.05-0.26,0.07c-0.42,0.11-0.85,0.2-1.28,0.28c-0.1,0.02-0.21,0.03-0.31,0.05c-0.34,0.06-0.67,0.11-1.01,0.15
			c-0.13,0.02-0.26,0.03-0.39,0.05c-0.37,0.04-0.74,0.07-1.11,0.09c-0.07,0-0.13,0.01-0.2,0.01c-0.42,0.02-0.84,0.03-1.27,0.02
			c-0.29,0-0.57-0.02-0.86-0.03c-0.21-0.01-0.42-0.01-0.63-0.03c-0.3-0.02-0.6-0.06-0.9-0.09c-0.19-0.02-0.39-0.04-0.58-0.06
			c-0.33-0.05-0.66-0.11-0.99-0.17c-0.16-0.03-0.32-0.05-0.48-0.09c-0.49-0.1-0.98-0.22-1.46-0.35c-1.6-0.45-4.72-2.13-9-6.48
			c-4.35-4.28-6.03-7.4-6.48-9c-2.11-7.53-0.2-15.94,5.72-21.86c3.74-3.74,8.48-5.88,13.35-6.41c0.07-0.17,0.15-0.36,0.23-0.54
			c0.02-0.04,0.04-0.09,0.06-0.14c0.06-0.14,0.13-0.28,0.19-0.43c0.04-0.08,0.08-0.16,0.11-0.24c0.06-0.12,0.11-0.24,0.17-0.36
			c0.04-0.08,0.08-0.16,0.12-0.24c0.06-0.13,0.12-0.25,0.19-0.38c0.05-0.09,0.1-0.19,0.14-0.28c0.06-0.12,0.12-0.24,0.19-0.36
			c0.05-0.1,0.11-0.2,0.16-0.3c0.06-0.12,0.13-0.24,0.19-0.36c0.05-0.1,0.11-0.2,0.16-0.29c0.07-0.13,0.14-0.25,0.21-0.38
			c0.06-0.1,0.12-0.21,0.18-0.31c0.07-0.12,0.14-0.25,0.21-0.37c0.06-0.11,0.13-0.22,0.19-0.33c0.07-0.12,0.15-0.25,0.22-0.37
			c0.07-0.11,0.13-0.22,0.2-0.32c0.08-0.13,0.15-0.25,0.23-0.38c0.07-0.11,0.14-0.22,0.21-0.33c0.08-0.13,0.16-0.25,0.24-0.38
			c0.07-0.11,0.14-0.22,0.22-0.33c0.08-0.12,0.16-0.25,0.25-0.37c0.07-0.11,0.15-0.22,0.22-0.33c0.08-0.12,0.16-0.24,0.25-0.37
			c0.08-0.11,0.16-0.22,0.23-0.34c0.08-0.12,0.17-0.24,0.25-0.36c0.08-0.11,0.16-0.22,0.24-0.33c0.09-0.12,0.17-0.24,0.26-0.35
			c0.08-0.11,0.16-0.22,0.24-0.32c0.09-0.12,0.17-0.23,0.26-0.34c0.08-0.11,0.16-0.21,0.25-0.32c0.09-0.11,0.17-0.22,0.26-0.33
			c0.08-0.1,0.17-0.21,0.25-0.31c0.09-0.11,0.17-0.22,0.26-0.32c0.08-0.1,0.17-0.2,0.25-0.3c0.09-0.1,0.18-0.21,0.27-0.31
			c0.08-0.1,0.17-0.19,0.25-0.28c0.09-0.1,0.18-0.2,0.27-0.3c0.08-0.09,0.17-0.18,0.25-0.27c0.09-0.1,0.18-0.19,0.27-0.29
			c0.08-0.09,0.17-0.17,0.25-0.25c0.09-0.09,0.18-0.18,0.27-0.27c0.08-0.08,0.17-0.16,0.25-0.24c0.09-0.08,0.18-0.17,0.26-0.24
			c0.08-0.08,0.17-0.15,0.25-0.22c0.09-0.08,0.17-0.15,0.26-0.22c0.08-0.07,0.17-0.13,0.25-0.2c0.09-0.07,0.17-0.14,0.26-0.2
			c0.08-0.06,0.16-0.12,0.24-0.18c0.09-0.06,0.17-0.12,0.26-0.18c0.08-0.05,0.16-0.1,0.24-0.15c0.08-0.05,0.17-0.11,0.25-0.15
			c0.08-0.05,0.16-0.09,0.24-0.13c0.08-0.04,0.17-0.09,0.25-0.13c0.08-0.04,0.15-0.07,0.23-0.1c0.08-0.03,0.16-0.07,0.24-0.1
			c0.08-0.03,0.15-0.05,0.23-0.08c0.08-0.02,0.16-0.05,0.23-0.07c0.07-0.02,0.15-0.03,0.22-0.05c0.08-0.01,0.15-0.03,0.23-0.04
			c0.07-0.01,0.14-0.01,0.21-0.02c0.1,0,0.21-0.01,0.31,0c5.7,0.37,12.28,4.62,17.49,9.74c5.12,5.21,9.37,11.79,9.74,17.49
			c0.05,0.76-0.24,1.6-0.78,2.49c-0.27-0.02-0.54-0.06-0.82-0.11c-1.52-0.28-3.11-0.96-4.33-1.67c-0.17-0.1-0.34-0.2-0.5-0.31
			c-0.34-0.22-0.63-0.44-0.88-0.65c0,0,0,0,0,0c0.01-0.03,0.02-0.05,0.04-0.08c0.07-0.15,0.12-0.3,0.16-0.45
			c0-0.02,0.01-0.04,0.01-0.06c0.03-0.16,0.05-0.32,0.04-0.48c-0.25-3.83-3.88-8.03-7.34-11.52c-3.49-3.47-7.69-7.09-11.52-7.34
			c-0.04,0-0.08,0-0.11,0c-0.01,0-0.03,0.01-0.04,0.01c-0.16,0-0.33,0.03-0.49,0.08c-0.02,0.01-0.04,0.01-0.07,0.02
			c-0.17,0.05-0.33,0.13-0.5,0.22c-0.02,0.01-0.04,0.03-0.06,0.04c-0.17,0.1-0.33,0.21-0.49,0.35c-0.02,0.02-0.04,0.03-0.06,0.05
			c-0.16,0.14-0.33,0.29-0.49,0.46c-0.02,0.02-0.04,0.04-0.05,0.06c-0.16,0.17-0.32,0.36-0.47,0.56c-0.02,0.02-0.03,0.04-0.05,0.06
			c-0.15,0.21-0.31,0.42-0.45,0.65c-0.01,0.02-0.03,0.05-0.04,0.07c-0.15,0.23-0.29,0.47-0.43,0.72c-0.01,0.02-0.02,0.04-0.04,0.07
			c-0.14,0.25-0.27,0.51-0.4,0.78c-0.01,0.02-0.02,0.04-0.03,0.07c-0.13,0.27-0.24,0.54-0.36,0.82c-0.01,0.02-0.02,0.04-0.02,0.06
			c-0.11,0.28-0.22,0.56-0.31,0.84c-0.01,0.02-0.01,0.04-0.02,0.06c-0.1,0.28-0.18,0.56-0.26,0.84c0,0.02-0.01,0.03-0.01,0.05
			c-0.08,0.28-0.15,0.56-0.2,0.84c0,0.02-0.01,0.03-0.01,0.04c-0.06,0.28-0.1,0.55-0.14,0.81c0,0.01,0,0.02,0,0.03
			c-0.03,0.27-0.06,0.53-0.07,0.77c0,0.01,0,0.01,0,0.02c-0.01,0.25-0.01,0.49,0.01,0.72c0,0,0,0.01,0,0.01
			c0.02,0.23,0.05,0.44,0.1,0.64c0,0,0,0,0,0c0.01,0.03,0.02,0.06,0.02,0.09c3.02,1.08,5.85,2.83,8.27,5.24
			c2.42,2.42,4.16,5.25,5.24,8.27c0.03,0.01,0.06,0.02,0.1,0.02c0.15,0.04,0.31,0.06,0.47,0.08c0.03,0,0.07,0.01,0.1,0.01
			c0.05,0,0.09,0.01,0.14,0.01c1.63,2.24,4.26,4.45,7,6.34C69.7,78.75,69.64,78.79,69.57,78.83z M121.49,68.83
			c2.93,5.22,3.61,11.36,2.03,17c-0.28,1-1.04,2.6-2.64,4.7c-0.96,1.26-2.21,2.7-3.85,4.3c-0.53,0.54-1.05,1.05-1.55,1.51
			c-0.25,0.23-0.49,0.45-0.73,0.67c-0.11,0.1-0.22,0.19-0.33,0.28c-0.13,0.11-0.25,0.22-0.38,0.33c-0.23,0.19-0.45,0.38-0.67,0.56
			c-0.44,0.35-0.86,0.67-1.26,0.96c-0.2,0.14-0.39,0.28-0.58,0.41c-0.38,0.26-0.74,0.48-1.07,0.68c-0.17,0.1-0.33,0.19-0.49,0.28
			c-0.16,0.08-0.31,0.16-0.46,0.24c-0.58,0.29-1.08,0.48-1.48,0.59c-0.48,0.14-0.97,0.25-1.46,0.35c-0.16,0.03-0.33,0.06-0.49,0.09
			c-0.33,0.06-0.66,0.12-0.98,0.17c-0.2,0.03-0.39,0.04-0.59,0.07c-0.3,0.03-0.6,0.07-0.9,0.09c-0.21,0.02-0.42,0.02-0.63,0.03
			c-0.29,0.01-0.57,0.03-0.86,0.03c-0.42,0-0.84,0-1.27-0.02c-0.07,0-0.13-0.01-0.2-0.01c-0.37-0.02-0.74-0.05-1.11-0.09
			c-0.13-0.01-0.26-0.03-0.39-0.05c-0.34-0.04-0.67-0.09-1-0.15c-0.1-0.02-0.21-0.03-0.31-0.05c-0.43-0.08-0.85-0.17-1.27-0.28
			c-0.09-0.02-0.18-0.05-0.27-0.07c-0.3-0.08-0.59-0.16-0.89-0.26c-0.04-0.01-0.08-0.02-0.12-0.03c-0.13-0.04-0.25-0.08-0.38-0.12
			c-0.34-0.11-0.67-0.23-1.01-0.36c-0.08-0.03-0.17-0.06-0.25-0.09c-0.41-0.16-0.81-0.34-1.21-0.53c-0.1-0.05-0.2-0.1-0.3-0.15
			c-0.08-0.04-0.16-0.08-0.24-0.13c-0.22-0.11-0.45-0.23-0.67-0.35c-0.12-0.06-0.24-0.13-0.35-0.2c-0.34-0.2-0.68-0.4-1.01-0.61
			c-0.05-0.03-0.1-0.06-0.15-0.09c-0.38-0.25-0.74-0.51-1.11-0.78c-0.1-0.08-0.2-0.15-0.3-0.23c-0.27-0.21-0.54-0.43-0.81-0.66
			c-0.1-0.09-0.21-0.17-0.31-0.26c-0.35-0.31-0.69-0.62-1.02-0.95c-0.47-0.47-0.91-0.95-1.33-1.45c-0.83-0.99-1.57-2.04-2.2-3.14
			c-1.59-2.73-2.55-5.72-2.88-8.77c-0.35-0.14-0.72-0.31-1.12-0.49c-0.2-0.09-0.4-0.19-0.6-0.29c-0.41-0.2-0.84-0.42-1.27-0.65
			c-5.92-3.13-14.06-9.03-13.81-12.83c0.06-0.94,0.23-1.9,0.49-2.87s0.61-1.96,1.04-2.95c0.28-0.66,0.59-1.32,0.94-1.98
			c0.27-0.51,0.56-1.01,0.86-1.51c1.68,1.86,3.33,3.98,4.16,5.99c-0.04,0.11-0.07,0.22-0.1,0.33h0c-0.17,0.57-0.28,1.13-0.32,1.69
			c0,0,0,0,0,0c-0.01,0.16,0.01,0.32,0.04,0.47c0,0.02,0.01,0.04,0.01,0.06c0.03,0.15,0.09,0.3,0.16,0.45c0,0,0,0,0,0
			c0.01,0.03,0.02,0.05,0.04,0.08c0,0,0,0,0,0c0,0,0,0,0,0.01c0.07,0.15,0.16,0.29,0.26,0.43c0.02,0.03,0.04,0.05,0.06,0.08
			c0.11,0.15,0.23,0.29,0.36,0.44c0.01,0.01,0.01,0.01,0.01,0.02c0.01,0.01,0.03,0.02,0.04,0.04c0.14,0.14,0.28,0.29,0.45,0.43
			c0,0,0,0,0,0c0,0,0,0,0,0c0.01,0.01,0.01,0.01,0.02,0.02c0,0,0,0,0.01,0.01c0,0,0,0,0,0c0.17,0.15,0.36,0.29,0.55,0.43
			c0.02,0.02,0.05,0.04,0.07,0.05c0.19,0.13,0.38,0.27,0.58,0.39c0.04,0.02,0.07,0.04,0.11,0.07c0.2,0.12,0.41,0.25,0.63,0.36
			c0.04,0.02,0.08,0.04,0.11,0.06c0.22,0.12,0.45,0.23,0.67,0.34c0.01,0,0.02,0.01,0.03,0.01c0.02,0.01,0.04,0.02,0.06,0.03
			c0.24,0.11,0.48,0.22,0.73,0.32c0.01,0,0.01,0.01,0.02,0.01c0.25,0.1,0.5,0.2,0.75,0.29c0.03,0.01,0.07,0.02,0.1,0.04
			c0.24,0.08,0.48,0.16,0.72,0.23c0.04,0.01,0.08,0.03,0.13,0.04c0.24,0.07,0.47,0.13,0.7,0.19c0.04,0.01,0.08,0.02,0.12,0.03
			c0.12,0.03,0.23,0.05,0.35,0.07c0,0,0,0,0,0c0.12,0.02,0.24,0.05,0.36,0.07c0.03,0,0.05,0.01,0.08,0.01
			c0.24,0.04,0.47,0.07,0.69,0.09c0.01,0,0.01,0,0.02,0c0.22,0.02,0.44,0.03,0.65,0.03c0.02,0,0.04,0,0.06,0c0.01,0,0.02,0,0.03,0
			c0.13,0,0.25,0,0.37-0.01c0.05,0,0.09-0.01,0.14-0.01c0.03,0,0.07-0.01,0.1-0.01c0,0,0,0,0,0c0.16-0.02,0.32-0.04,0.47-0.08
			c0,0,0,0,0,0c0.03-0.01,0.06-0.02,0.1-0.02c0.54-1.51,1.25-2.97,2.12-4.36c0.87-1.39,1.91-2.7,3.12-3.91
			c0.54-0.54,1.1-1.05,1.68-1.52c1.74-1.42,3.64-2.53,5.63-3.35v0c0.32-0.13,0.63-0.26,0.96-0.37c0.01-0.03,0.02-0.06,0.02-0.09
			c0,0,0,0,0,0c0.05-0.2,0.08-0.41,0.1-0.64c0,0,0-0.01,0-0.01c0.02-0.22,0.02-0.46,0.01-0.71c0-0.01,0-0.02,0-0.03
			c-0.01-0.25-0.03-0.5-0.07-0.77c0-0.01,0-0.02,0-0.04c-0.03-0.26-0.08-0.53-0.14-0.81c0-0.02-0.01-0.03-0.01-0.05
			c-0.06-0.27-0.12-0.55-0.2-0.83c-0.01-0.02-0.01-0.04-0.02-0.06c-0.08-0.28-0.16-0.56-0.26-0.83c-0.01-0.02-0.02-0.05-0.02-0.07
			c-0.09-0.28-0.2-0.55-0.31-0.82c-0.01-0.03-0.02-0.05-0.03-0.08c-0.11-0.27-0.23-0.54-0.35-0.8c-0.01-0.03-0.03-0.06-0.04-0.08
			c-0.12-0.26-0.25-0.51-0.39-0.76c-0.02-0.03-0.03-0.06-0.05-0.08c-0.13-0.24-0.27-0.48-0.42-0.7c-0.02-0.03-0.03-0.06-0.05-0.08
			c-0.14-0.22-0.29-0.43-0.44-0.64c-0.02-0.03-0.04-0.05-0.06-0.08c-0.15-0.2-0.31-0.38-0.46-0.55c-0.02-0.02-0.04-0.05-0.06-0.07
			c-0.16-0.17-0.32-0.32-0.48-0.45c-0.02-0.02-0.04-0.04-0.07-0.06c-0.16-0.13-0.32-0.25-0.49-0.34c-0.02-0.01-0.05-0.03-0.07-0.04
			c-0.16-0.09-0.33-0.16-0.49-0.22c-0.02-0.01-0.05-0.02-0.07-0.02c-0.17-0.05-0.33-0.07-0.49-0.08c-0.01,0-0.03-0.01-0.04-0.01
			c-0.04,0-0.08,0-0.11,0c-3.83,0.25-8.03,3.88-11.52,7.34c-0.16,0.16-0.33,0.33-0.49,0.5c-1.19-1.74-2.58-3.48-4.15-5.18
			c0.64-0.63,1.31-1.25,1.99-1.85c0.34-0.3,0.69-0.6,1.05-0.89c1.06-0.88,2.15-1.71,3.26-2.47c0.74-0.51,1.49-0.98,2.24-1.42
			c0.75-0.44,1.51-0.84,2.26-1.19c1.13-0.54,2.27-0.97,3.38-1.3c0.74-0.22,1.48-0.38,2.21-0.48c0.36-0.05,0.72-0.09,1.08-0.11
			c0.1-0.01,0.2,0,0.31,0c0.07,0,0.14,0.01,0.21,0.02c0.07,0.01,0.15,0.02,0.23,0.04c0.07,0.01,0.15,0.03,0.22,0.05
			c0.08,0.02,0.16,0.04,0.23,0.07c0.08,0.02,0.15,0.05,0.23,0.08c0.08,0.03,0.16,0.06,0.24,0.1c0.08,0.03,0.15,0.07,0.23,0.1
			c0.08,0.04,0.16,0.08,0.25,0.13c0.08,0.04,0.16,0.08,0.24,0.13c0.08,0.05,0.17,0.1,0.25,0.15c0.08,0.05,0.16,0.1,0.24,0.16
			c0.08,0.06,0.17,0.12,0.25,0.18c0.08,0.06,0.16,0.12,0.24,0.18c0.09,0.07,0.17,0.13,0.26,0.2c0.08,0.07,0.17,0.13,0.25,0.2
			c0.09,0.07,0.17,0.15,0.26,0.22c0.08,0.07,0.17,0.15,0.25,0.22c0.09,0.08,0.17,0.16,0.26,0.24c0.08,0.08,0.17,0.16,0.25,0.24
			c0.09,0.09,0.18,0.18,0.27,0.26c0.08,0.08,0.17,0.17,0.25,0.26c0.09,0.09,0.18,0.19,0.26,0.28c0.08,0.09,0.17,0.18,0.26,0.27
			c0.09,0.1,0.17,0.19,0.26,0.29c0.09,0.1,0.17,0.19,0.26,0.29c0.09,0.1,0.18,0.2,0.26,0.31c0.08,0.1,0.17,0.2,0.25,0.3
			c0.09,0.1,0.17,0.21,0.26,0.32c0.09,0.11,0.17,0.21,0.26,0.32c0.09,0.11,0.17,0.22,0.26,0.33c0.08,0.11,0.17,0.22,0.25,0.33
			c0.08,0.11,0.17,0.22,0.25,0.33c0.08,0.11,0.17,0.22,0.25,0.34c0.08,0.11,0.17,0.23,0.25,0.35c0.08,0.11,0.16,0.22,0.24,0.33
			c0.08,0.12,0.16,0.23,0.25,0.35c0.08,0.11,0.16,0.23,0.24,0.34c0.08,0.11,0.16,0.23,0.23,0.35c0.08,0.12,0.16,0.23,0.24,0.35
			c0.08,0.12,0.16,0.24,0.23,0.36c0.08,0.12,0.15,0.23,0.23,0.35c0.08,0.12,0.15,0.24,0.23,0.36c0.07,0.12,0.15,0.23,0.22,0.35
			c0.07,0.12,0.15,0.24,0.22,0.36c0.07,0.11,0.14,0.23,0.21,0.34c0.07,0.12,0.15,0.24,0.22,0.36c0.07,0.11,0.13,0.22,0.2,0.33
			c0.07,0.12,0.14,0.24,0.21,0.36c0.06,0.11,0.13,0.22,0.19,0.32c0.07,0.12,0.14,0.24,0.2,0.36c0.06,0.1,0.12,0.21,0.17,0.31
			c0.07,0.12,0.13,0.24,0.2,0.37c0.05,0.1,0.11,0.2,0.16,0.29c0.06,0.12,0.12,0.24,0.19,0.36c0.05,0.1,0.1,0.19,0.15,0.29
			c0.06,0.12,0.12,0.24,0.18,0.36c0.04,0.09,0.09,0.18,0.13,0.26c0.06,0.13,0.12,0.25,0.18,0.38c0.03,0.07,0.07,0.15,0.1,0.22
			c0.07,0.15,0.14,0.3,0.2,0.45c0.02,0.04,0.04,0.08,0.06,0.12c0.08,0.19,0.16,0.37,0.23,0.54c1.47,0.16,2.92,0.49,4.34,0.94
			c0-0.01,0-0.01,0-0.02v0c1.58,0.5,3.12,1.19,4.58,2.05c0,0,0,0,0,0c0.47,0.28,0.93,0.57,1.38,0.89c0,0,0,0,0,0
			c0.09,0.07,0.19,0.14,0.28,0.21c0,0,0,0,0,0c0.38,0.27,0.75,0.56,1.11,0.85c0,0,0,0,0,0c0.12,0.1,0.25,0.2,0.37,0.31c0,0,0,0,0,0
			c0.09,0.08,0.19,0.15,0.28,0.24c0.34,0.3,0.68,0.62,1,0.94C119.29,65.45,120.52,67.09,121.49,68.83z"/>
	</g>
	<g id="Blue_7451C">
		<path class="st1" d="M62.77,72.37c-0.05,0-0.09-0.01-0.14-0.01c-0.03,0-0.07-0.01-0.1-0.01c-0.16-0.02-0.32-0.04-0.47-0.08
			c-0.03-0.01-0.06-0.02-0.1-0.02c-1.08-3.02-2.83-5.85-5.24-8.27c-2.42-2.42-5.25-4.16-8.27-5.24c-0.01-0.03-0.02-0.06-0.02-0.09
			c0,0,0,0,0,0c-0.05-0.2-0.08-0.41-0.1-0.64c0,0,0-0.01,0-0.01c-0.02-0.23-0.02-0.47-0.01-0.72c0-0.01,0-0.01,0-0.02
			c0.01-0.25,0.03-0.51,0.07-0.77c0-0.01,0-0.02,0-0.03c0.03-0.26,0.08-0.54,0.14-0.81c0-0.02,0.01-0.03,0.01-0.04
			c0.06-0.27,0.13-0.55,0.2-0.84c0-0.02,0.01-0.03,0.01-0.05c0.08-0.28,0.17-0.56,0.26-0.84c0.01-0.02,0.01-0.04,0.02-0.06
			c0.1-0.28,0.2-0.56,0.31-0.84c0.01-0.02,0.02-0.04,0.02-0.06c0.11-0.28,0.23-0.55,0.36-0.82c0.01-0.02,0.02-0.04,0.03-0.07
			c0.13-0.27,0.26-0.52,0.4-0.78c0.01-0.02,0.02-0.04,0.04-0.07c0.14-0.25,0.28-0.49,0.43-0.72c0.01-0.02,0.03-0.05,0.04-0.07
			c0.15-0.23,0.3-0.44,0.45-0.65c0.02-0.02,0.03-0.04,0.05-0.06c0.15-0.2,0.31-0.39,0.47-0.56c0.02-0.02,0.03-0.04,0.05-0.06
			c0.16-0.17,0.32-0.32,0.49-0.46c0.02-0.02,0.04-0.03,0.06-0.05c0.16-0.13,0.33-0.25,0.49-0.35c0.02-0.01,0.04-0.03,0.06-0.04
			c0.17-0.09,0.33-0.17,0.5-0.22c0.02-0.01,0.04-0.02,0.07-0.02c0.17-0.05,0.33-0.07,0.49-0.08c0.01,0,0.03-0.01,0.04-0.01
			c0.04,0,0.08,0,0.11,0c3.83,0.25,8.03,3.88,11.52,7.34c3.47,3.49,7.09,7.69,7.34,11.52c0.01,0.16-0.01,0.32-0.04,0.48
			c0,0.02-0.01,0.04-0.01,0.06c-0.03,0.15-0.09,0.3-0.16,0.45c-0.01,0.03-0.02,0.05-0.04,0.08c0,0,0,0,0,0
			c0.24,0.21,0.54,0.43,0.88,0.65c0.16,0.1,0.32,0.21,0.5,0.31c1.22,0.71,2.81,1.39,4.33,1.67c0.28,0.05,0.55,0.08,0.82,0.11
			c0.54-0.89,0.83-1.73,0.78-2.49c-0.37-5.7-4.62-12.28-9.74-17.49c-5.21-5.12-11.79-9.37-17.49-9.74c-0.1-0.01-0.2,0-0.31,0
			c-0.07,0-0.14,0.01-0.21,0.02c-0.07,0.01-0.15,0.02-0.23,0.04c-0.07,0.01-0.15,0.03-0.22,0.05c-0.08,0.02-0.16,0.04-0.23,0.07
			c-0.08,0.02-0.15,0.05-0.23,0.08c-0.08,0.03-0.16,0.06-0.24,0.1c-0.08,0.03-0.15,0.07-0.23,0.1c-0.08,0.04-0.16,0.08-0.25,0.13
			c-0.08,0.04-0.16,0.08-0.24,0.13c-0.08,0.05-0.17,0.1-0.25,0.15c-0.08,0.05-0.16,0.1-0.24,0.15c-0.09,0.06-0.17,0.12-0.26,0.18
			c-0.08,0.06-0.16,0.12-0.24,0.18c-0.09,0.07-0.17,0.13-0.26,0.2c-0.08,0.07-0.17,0.13-0.25,0.2c-0.09,0.07-0.17,0.15-0.26,0.22
			c-0.08,0.07-0.17,0.15-0.25,0.22c-0.09,0.08-0.18,0.16-0.26,0.24c-0.08,0.08-0.17,0.16-0.25,0.24c-0.09,0.09-0.18,0.18-0.27,0.27
			c-0.08,0.08-0.17,0.17-0.25,0.25c-0.09,0.09-0.18,0.19-0.27,0.29c-0.08,0.09-0.17,0.18-0.25,0.27c-0.09,0.1-0.18,0.2-0.27,0.3
			c-0.08,0.09-0.17,0.19-0.25,0.28c-0.09,0.1-0.18,0.21-0.27,0.31c-0.08,0.1-0.17,0.2-0.25,0.3c-0.09,0.11-0.18,0.21-0.26,0.32
			c-0.08,0.1-0.17,0.21-0.25,0.31c-0.09,0.11-0.17,0.22-0.26,0.33c-0.08,0.11-0.16,0.21-0.25,0.32c-0.09,0.11-0.17,0.23-0.26,0.34
			c-0.08,0.11-0.16,0.21-0.24,0.32c-0.09,0.12-0.17,0.24-0.26,0.35c-0.08,0.11-0.16,0.22-0.24,0.33c-0.08,0.12-0.17,0.24-0.25,0.36
			c-0.08,0.11-0.16,0.22-0.23,0.34c-0.08,0.12-0.17,0.24-0.25,0.37c-0.07,0.11-0.15,0.22-0.22,0.33c-0.08,0.12-0.16,0.25-0.25,0.37
			c-0.07,0.11-0.14,0.22-0.22,0.33c-0.08,0.13-0.16,0.25-0.24,0.38c-0.07,0.11-0.14,0.22-0.21,0.33c-0.08,0.13-0.15,0.25-0.23,0.38
			c-0.07,0.11-0.13,0.22-0.2,0.32c-0.08,0.12-0.15,0.25-0.22,0.37c-0.06,0.11-0.13,0.22-0.19,0.33c-0.07,0.12-0.14,0.25-0.21,0.37
			c-0.06,0.1-0.12,0.21-0.18,0.31c-0.07,0.13-0.14,0.26-0.21,0.38c-0.05,0.1-0.11,0.2-0.16,0.29c-0.07,0.12-0.13,0.24-0.19,0.36
			c-0.05,0.1-0.11,0.2-0.16,0.3c-0.06,0.12-0.13,0.24-0.19,0.36c-0.05,0.09-0.1,0.19-0.14,0.28c-0.07,0.13-0.13,0.25-0.19,0.38
			c-0.04,0.08-0.08,0.16-0.12,0.24c-0.06,0.12-0.11,0.24-0.17,0.36c-0.04,0.08-0.08,0.16-0.11,0.24c-0.07,0.15-0.13,0.29-0.19,0.43
			c-0.02,0.04-0.04,0.09-0.06,0.14c-0.08,0.19-0.16,0.37-0.23,0.54c-4.88,0.54-9.61,2.67-13.35,6.41
			c-5.92,5.92-7.83,14.33-5.72,21.86c0.45,1.6,2.13,4.72,6.48,9c4.28,4.35,7.4,6.03,9,6.48c0.48,0.14,0.97,0.25,1.46,0.35
			c0.16,0.03,0.32,0.06,0.48,0.09c0.33,0.06,0.66,0.12,0.99,0.17c0.19,0.03,0.39,0.04,0.58,0.06c0.3,0.03,0.6,0.07,0.9,0.09
			c0.21,0.02,0.42,0.02,0.63,0.03c0.29,0.01,0.57,0.03,0.86,0.03c0.42,0,0.85,0,1.27-0.02c0.07,0,0.13-0.01,0.2-0.01
			c0.37-0.02,0.74-0.05,1.11-0.09c0.13-0.01,0.26-0.03,0.39-0.05c0.34-0.04,0.67-0.09,1.01-0.15c0.1-0.02,0.21-0.03,0.31-0.05
			c0.43-0.08,0.85-0.17,1.28-0.28c0.09-0.02,0.17-0.05,0.26-0.07c0.34-0.09,0.68-0.19,1.02-0.29c0.13-0.04,0.25-0.08,0.37-0.12
			c0.34-0.11,0.68-0.24,1.02-0.37c0.08-0.03,0.16-0.06,0.24-0.09c0.41-0.16,0.81-0.34,1.21-0.53c0.1-0.05,0.2-0.1,0.29-0.14
			c0.31-0.15,0.62-0.31,0.92-0.48c0.12-0.06,0.23-0.13,0.35-0.19c0.34-0.2,0.68-0.4,1.02-0.62c0.05-0.03,0.09-0.06,0.14-0.09
			c0.38-0.25,0.75-0.51,1.11-0.78c0.1-0.07,0.2-0.15,0.3-0.23c0.27-0.21,0.55-0.43,0.81-0.66c0.1-0.09,0.2-0.17,0.31-0.26
			c0.35-0.31,0.69-0.62,1.02-0.95c3.74-3.74,5.88-8.48,6.41-13.35c0.35-0.14,0.72-0.31,1.12-0.49c0.2-0.09,0.4-0.19,0.6-0.29
			c0.41-0.2,0.84-0.42,1.27-0.65c0.22-0.12,0.44-0.24,0.67-0.36c0.45-0.25,0.91-0.51,1.37-0.78s0.94-0.56,1.41-0.85
			c0.06-0.04,0.13-0.08,0.19-0.12C67.03,76.82,64.4,74.61,62.77,72.37z M45.75,49.5c1.68-2.91,3.47-5.78,6.73-7.27
			c1.83-0.59,3.59,0.08,5.17,0.85c1.48,0.77,2.82,1.71,4.03,2.83c0.14,0.13,0.15,0.35,0.02,0.49c-0.12,0.13-0.31,0.15-0.45,0.05
			c-8.24-4.95-9.08-3.38-14.91,3.42C46.09,50.2,45.55,49.86,45.75,49.5z M57.47,86.74c-1.72,7.9-9.98,12.45-17.67,12.07
			c-0.43,0-0.47-0.65-0.03-0.69c7.13-0.79,14.32-4.55,17.03-11.54C56.91,86.17,57.56,86.32,57.47,86.74z"/>
	</g>
	<g id="Red_185C">
		<path class="st2" d="M116.52,62.79C116.52,62.79,116.52,62.79,116.52,62.79c-0.12-0.11-0.25-0.21-0.37-0.31c0,0,0,0,0,0
			c-0.36-0.3-0.73-0.58-1.11-0.85c0,0,0,0,0,0c-0.09-0.07-0.19-0.14-0.28-0.21c0,0,0,0,0,0c-0.45-0.31-0.91-0.61-1.38-0.89
			c0,0,0,0,0,0c-1.46-0.86-2.99-1.55-4.58-2.05v0c0,0.01,0,0.01,0,0.02c-1.42-0.45-2.87-0.78-4.34-0.94
			c-0.07-0.17-0.15-0.36-0.23-0.54c-0.02-0.04-0.04-0.08-0.06-0.12c-0.06-0.15-0.13-0.29-0.2-0.45c-0.03-0.07-0.07-0.15-0.1-0.22
			c-0.06-0.13-0.12-0.25-0.18-0.38c-0.04-0.09-0.09-0.17-0.13-0.26c-0.06-0.12-0.12-0.24-0.18-0.36c-0.05-0.09-0.1-0.19-0.15-0.29
			c-0.06-0.12-0.12-0.24-0.19-0.36c-0.05-0.1-0.11-0.2-0.16-0.29c-0.07-0.12-0.13-0.24-0.2-0.37c-0.06-0.1-0.12-0.21-0.17-0.31
			c-0.07-0.12-0.13-0.24-0.2-0.36c-0.06-0.11-0.12-0.22-0.19-0.32c-0.07-0.12-0.14-0.24-0.21-0.36c-0.06-0.11-0.13-0.22-0.2-0.33
			c-0.07-0.12-0.14-0.24-0.22-0.36c-0.07-0.11-0.14-0.23-0.21-0.34c-0.07-0.12-0.15-0.24-0.22-0.36c-0.07-0.12-0.15-0.23-0.22-0.35
			c-0.08-0.12-0.15-0.24-0.23-0.36c-0.07-0.12-0.15-0.23-0.23-0.35c-0.08-0.12-0.15-0.24-0.23-0.36c-0.08-0.12-0.16-0.23-0.24-0.35
			c-0.08-0.12-0.16-0.23-0.23-0.35c-0.08-0.12-0.16-0.23-0.24-0.34c-0.08-0.12-0.16-0.23-0.25-0.35c-0.08-0.11-0.16-0.22-0.24-0.33
			c-0.08-0.12-0.17-0.23-0.25-0.35c-0.08-0.11-0.17-0.22-0.25-0.34c-0.08-0.11-0.17-0.22-0.25-0.33c-0.08-0.11-0.17-0.22-0.25-0.33
			c-0.08-0.11-0.17-0.22-0.26-0.33c-0.08-0.11-0.17-0.21-0.26-0.32c-0.09-0.11-0.17-0.21-0.26-0.32c-0.08-0.1-0.17-0.2-0.25-0.3
			c-0.09-0.1-0.17-0.21-0.26-0.31c-0.09-0.1-0.17-0.19-0.26-0.29c-0.09-0.1-0.17-0.2-0.26-0.29c-0.09-0.09-0.17-0.18-0.26-0.27
			c-0.09-0.09-0.18-0.19-0.26-0.28c-0.08-0.09-0.17-0.17-0.25-0.26c-0.09-0.09-0.18-0.18-0.27-0.26c-0.08-0.08-0.17-0.16-0.25-0.24
			c-0.09-0.08-0.17-0.16-0.26-0.24c-0.08-0.08-0.17-0.15-0.25-0.22c-0.09-0.08-0.17-0.15-0.26-0.22c-0.08-0.07-0.17-0.13-0.25-0.2
			c-0.09-0.07-0.17-0.14-0.26-0.2c-0.08-0.06-0.16-0.12-0.24-0.18c-0.09-0.06-0.17-0.12-0.25-0.18c-0.08-0.05-0.16-0.11-0.24-0.16
			c-0.08-0.05-0.17-0.1-0.25-0.15c-0.08-0.05-0.16-0.09-0.24-0.13c-0.08-0.04-0.16-0.09-0.25-0.13c-0.08-0.04-0.16-0.07-0.23-0.1
			c-0.08-0.03-0.16-0.07-0.24-0.1c-0.08-0.03-0.15-0.05-0.23-0.08c-0.08-0.02-0.16-0.05-0.23-0.07c-0.07-0.02-0.15-0.03-0.22-0.05
			c-0.08-0.01-0.15-0.03-0.23-0.04c-0.07-0.01-0.14-0.01-0.21-0.02c-0.1,0-0.21-0.01-0.31,0c-0.36,0.02-0.72,0.06-1.08,0.11
			c-0.73,0.11-1.46,0.27-2.21,0.48c-1.12,0.32-2.25,0.76-3.38,1.3c-0.76,0.36-1.51,0.76-2.26,1.19c-0.75,0.44-1.5,0.91-2.24,1.42
			c-1.11,0.76-2.2,1.59-3.26,2.47c-0.35,0.29-0.7,0.59-1.05,0.89c-0.68,0.6-1.35,1.22-1.99,1.85c1.57,1.71,2.96,3.45,4.15,5.18
			c0.16-0.17,0.33-0.33,0.49-0.5c3.49-3.47,7.69-7.09,11.52-7.34c0.04,0,0.08,0,0.11,0c0.01,0,0.03,0.01,0.04,0.01
			c0.16,0,0.33,0.03,0.49,0.08c0.02,0.01,0.05,0.01,0.07,0.02c0.17,0.05,0.33,0.12,0.49,0.22c0.02,0.01,0.05,0.03,0.07,0.04
			c0.16,0.1,0.33,0.21,0.49,0.34c0.02,0.02,0.04,0.04,0.07,0.06c0.16,0.14,0.32,0.29,0.48,0.45c0.02,0.02,0.04,0.05,0.06,0.07
			c0.16,0.17,0.31,0.36,0.46,0.55c0.02,0.02,0.04,0.05,0.06,0.08c0.15,0.2,0.3,0.41,0.44,0.64c0.02,0.03,0.03,0.05,0.05,0.08
			c0.14,0.23,0.28,0.46,0.42,0.7c0.02,0.03,0.03,0.06,0.05,0.08c0.13,0.25,0.26,0.5,0.39,0.76c0.01,0.03,0.03,0.06,0.04,0.08
			c0.12,0.26,0.24,0.53,0.35,0.8c0.01,0.03,0.02,0.05,0.03,0.08c0.11,0.27,0.21,0.55,0.31,0.82c0.01,0.02,0.02,0.05,0.02,0.07
			c0.09,0.28,0.18,0.56,0.26,0.83c0.01,0.02,0.01,0.04,0.02,0.06c0.08,0.28,0.14,0.56,0.2,0.83c0,0.02,0.01,0.03,0.01,0.05
			c0.06,0.28,0.1,0.55,0.14,0.81c0,0.01,0,0.02,0,0.04c0.03,0.27,0.06,0.52,0.07,0.77c0,0.01,0,0.02,0,0.03
			c0.01,0.25,0.01,0.49-0.01,0.71c0,0,0,0.01,0,0.01c-0.02,0.23-0.05,0.44-0.1,0.64c0,0,0,0,0,0c-0.01,0.03-0.02,0.06-0.02,0.09
			c-0.32,0.11-0.64,0.24-0.96,0.37v0c-1.99,0.82-3.89,1.93-5.63,3.35c-0.58,0.47-1.14,0.98-1.68,1.52
			c-1.21,1.21-2.25,2.52-3.12,3.91c-0.87,1.39-1.58,2.85-2.12,4.36c-0.03,0.01-0.06,0.02-0.1,0.02c0,0,0,0,0,0
			c-0.15,0.04-0.31,0.06-0.47,0.08c0,0,0,0,0,0c-0.03,0-0.07,0.01-0.1,0.01c-0.05,0-0.09,0.01-0.14,0.01
			c-0.12,0.01-0.24,0.01-0.37,0.01c-0.01,0-0.02,0-0.03,0c-0.02,0-0.04,0-0.06,0c-0.21,0-0.42-0.01-0.65-0.03c-0.01,0-0.01,0-0.02,0
			c-0.22-0.02-0.46-0.05-0.69-0.09c-0.03,0-0.05-0.01-0.08-0.01c-0.12-0.02-0.24-0.04-0.36-0.07c-0.11-0.02-0.23-0.05-0.34-0.07
			c-0.04-0.01-0.08-0.02-0.12-0.03c-0.04-0.01-0.08-0.02-0.12-0.03c-0.19-0.05-0.39-0.1-0.59-0.16c-0.04-0.01-0.08-0.02-0.13-0.04
			c-0.22-0.06-0.43-0.13-0.65-0.21c-0.02-0.01-0.05-0.02-0.07-0.02c-0.03-0.01-0.07-0.02-0.1-0.04c-0.25-0.09-0.5-0.18-0.75-0.29
			c-0.01,0-0.01-0.01-0.02-0.01c-0.25-0.1-0.49-0.21-0.73-0.32c-0.02-0.01-0.04-0.02-0.06-0.03c-0.01,0-0.02-0.01-0.03-0.01
			c-0.23-0.11-0.45-0.22-0.67-0.34c-0.04-0.02-0.08-0.04-0.11-0.06c-0.21-0.12-0.42-0.24-0.63-0.36c-0.04-0.02-0.07-0.04-0.11-0.07
			c-0.2-0.13-0.4-0.26-0.58-0.39c-0.02-0.02-0.05-0.04-0.07-0.05c-0.19-0.14-0.38-0.29-0.55-0.43c0,0,0,0,0,0c0,0,0,0-0.01-0.01
			c-0.01-0.01-0.01-0.01-0.02-0.02c0,0,0,0,0,0c-0.16-0.14-0.31-0.28-0.45-0.43c-0.01-0.01-0.03-0.02-0.04-0.04
			c-0.01-0.01-0.01-0.01-0.01-0.02c-0.13-0.15-0.25-0.29-0.36-0.44c-0.02-0.03-0.04-0.05-0.06-0.08c-0.1-0.14-0.19-0.29-0.26-0.43
			c0,0,0,0,0-0.01c0,0,0,0,0,0c-0.01-0.03-0.02-0.05-0.04-0.08c0,0,0,0,0,0c-0.07-0.15-0.12-0.3-0.16-0.45
			c0-0.02-0.01-0.04-0.01-0.06c-0.03-0.16-0.05-0.32-0.04-0.47c0,0,0,0,0,0c0.04-0.56,0.15-1.12,0.32-1.69h0
			c0.03-0.11,0.07-0.22,0.1-0.33c-0.83-2.01-2.48-4.12-4.16-5.99c-0.3,0.5-0.59,1.01-0.86,1.51c-0.35,0.66-0.66,1.32-0.94,1.98
			c-0.43,0.99-0.78,1.98-1.04,2.95s-0.43,1.93-0.49,2.87c-0.25,3.8,7.89,9.7,13.81,12.83c0.44,0.23,0.86,0.45,1.27,0.65
			c0.2,0.1,0.41,0.19,0.6,0.29c0.39,0.18,0.77,0.34,1.12,0.49c0.34,3.05,1.3,6.04,2.88,8.77c0.63,1.09,1.37,2.14,2.2,3.14
			c0.42,0.5,0.86,0.98,1.33,1.45c0.33,0.33,0.67,0.65,1.02,0.95c0.1,0.09,0.2,0.18,0.31,0.26c0.27,0.23,0.54,0.45,0.81,0.66
			c0.1,0.08,0.2,0.16,0.3,0.23c0.36,0.27,0.73,0.53,1.11,0.78c0.05,0.03,0.1,0.06,0.15,0.09c0.33,0.21,0.67,0.42,1.01,0.61
			c0.12,0.07,0.23,0.13,0.35,0.2c0.22,0.12,0.45,0.23,0.67,0.35c0.08,0.04,0.16,0.09,0.24,0.13c0.1,0.05,0.2,0.1,0.3,0.15
			c0.4,0.19,0.8,0.36,1.21,0.53c0.08,0.03,0.17,0.06,0.25,0.09c0.33,0.13,0.67,0.25,1.01,0.36c0.13,0.04,0.25,0.08,0.38,0.12
			c0.04,0.01,0.08,0.02,0.12,0.03c0.3,0.09,0.59,0.18,0.89,0.26c0.09,0.02,0.18,0.05,0.27,0.07c0.42,0.1,0.85,0.2,1.27,0.28
			c0.1,0.02,0.21,0.03,0.31,0.05c0.33,0.06,0.67,0.11,1,0.15c0.13,0.02,0.26,0.03,0.39,0.05c0.37,0.04,0.74,0.07,1.11,0.09
			c0.07,0,0.13,0.01,0.2,0.01c0.42,0.02,0.84,0.03,1.27,0.02c0.29,0,0.57-0.02,0.86-0.03c0.21-0.01,0.42-0.01,0.63-0.03
			c0.3-0.02,0.6-0.06,0.9-0.09c0.2-0.02,0.39-0.04,0.59-0.07c0.33-0.05,0.66-0.11,0.98-0.17c0.16-0.03,0.33-0.05,0.49-0.09
			c0.49-0.1,0.97-0.22,1.46-0.35c0.4-0.11,0.9-0.3,1.48-0.59c0.15-0.07,0.3-0.15,0.46-0.24c0.16-0.08,0.32-0.18,0.49-0.28
			c0.34-0.2,0.69-0.42,1.07-0.68c0.19-0.13,0.38-0.26,0.58-0.41c0.4-0.29,0.82-0.6,1.26-0.96c0.22-0.18,0.44-0.36,0.67-0.56
			c0.12-0.1,0.25-0.22,0.38-0.33c0.11-0.09,0.22-0.18,0.33-0.28c0.24-0.21,0.48-0.43,0.73-0.67c0.5-0.46,1.01-0.97,1.55-1.51
			c1.63-1.6,2.89-3.05,3.85-4.3c1.59-2.1,2.36-3.69,2.64-4.7c1.58-5.64,0.9-11.79-2.03-17c-0.98-1.74-2.21-3.37-3.69-4.85
			c-0.33-0.33-0.66-0.64-1-0.94C116.71,62.95,116.61,62.87,116.52,62.79z M81.64,46.46c-0.34,0.22-0.72-0.29-0.42-0.55
			c7.51-6.55,11.36-4.38,15.93,3.59c0.2,0.36-0.34,0.71-0.59,0.37C90.72,43.05,89.88,41.51,81.64,46.46z M103.1,98.81
			c-6.74,0.29-13.82-3-16.75-9.31c-0.38-0.89-0.74-1.78-0.92-2.76c-0.03-0.19,0.09-0.37,0.28-0.4c0.18-0.03,0.34,0.08,0.4,0.24
			c2.71,6.99,9.9,10.75,17.03,11.54C103.56,98.15,103.53,98.82,103.1,98.81z"/>
	</g>
	<g id="White">
		<path class="st3" d="M71.45,4.85c-36.73,0-66.61,29.88-66.61,66.61c0,11.15,2.81,22.19,8.13,31.91
			c11.7,21.4,34.11,34.69,58.48,34.69c26.83,0,50.92-15.97,61.37-40.68c3.47-8.21,5.23-16.93,5.23-25.93
			C138.06,34.72,108.18,4.85,71.45,4.85z M131.37,96.76c-10.21,24.13-33.73,39.72-59.92,39.72c-23.79,0-45.67-12.98-57.1-33.87
			c-5.19-9.49-7.94-20.27-7.94-31.16c0-35.86,29.17-65.03,65.03-65.03c35.86,0,65.03,29.17,65.03,65.03
			C136.48,80.23,134.76,88.75,131.37,96.76z"/>
		<path class="st3" d="M97.15,49.5c-4.57-7.97-8.42-10.14-15.93-3.59c-0.31,0.27,0.07,0.77,0.42,0.55
			c8.23-4.95,9.08-3.42,14.92,3.41C96.81,50.2,97.35,49.86,97.15,49.5z"/>
		<path class="st3" d="M103.13,98.11c-7.13-0.79-14.32-4.55-17.03-11.54c-0.05-0.16-0.22-0.27-0.4-0.24
			c-0.19,0.03-0.31,0.22-0.28,0.4c0.18,0.98,0.54,1.86,0.92,2.76c2.92,6.31,10.01,9.6,16.75,9.31
			C103.53,98.82,103.56,98.15,103.13,98.11z"/>
		<path class="st3" d="M46.33,49.87c5.83-6.8,6.68-8.37,14.91-3.42c0.14,0.09,0.33,0.07,0.45-0.05c0.13-0.14,0.12-0.36-0.02-0.49
			c-1.21-1.12-2.55-2.06-4.03-2.83c-1.58-0.77-3.34-1.44-5.17-0.85c-3.26,1.49-5.05,4.36-6.73,7.27
			C45.55,49.86,46.09,50.2,46.33,49.87z"/>
		<path class="st3" d="M56.79,86.58c-2.7,6.99-9.9,10.75-17.03,11.54c-0.43,0.05-0.4,0.69,0.03,0.69
			c7.69,0.38,15.95-4.17,17.67-12.07C57.56,86.32,56.91,86.17,56.79,86.58z"/>
	</g>
</g>
</svg>
