<?xml version="1.0" encoding="utf-8"?>
<!-- Generator: Adobe Illustrator 26.5.0, SVG Export Plug-In . SVG Version: 6.00 Build 0)  -->
<svg version="1.1" id="Layer_1" xmlns="http://www.w3.org/2000/svg" xmlns:xlink="http://www.w3.org/1999/xlink" x="0px" y="0px"
	 viewBox="0 0 150 86.9" style="enable-background:new 0 0 150 86.9;" xml:space="preserve">
<style type="text/css">
	.st0{fill:#FFFFFF;}
</style>
<g>
	<g id="Blue_7451C">
		<path class="st0" d="M62.7,44.7c-0.4,0-0.8-0.1-1.1-0.2C58.7,36,51,28.3,42.5,25.4c0,0,0-0.1,0-0.1l0,0
			c-0.7-4.8,2.5-14.5,7.9-15.3c8.8,0.8,28.1,18.9,26.4,28.2l0,0c2.5,2,5.9,3.5,9.2,3.9C91.3,26.1,63-0.1,47.8,0
			c-8.7,2.7-15.7,15.9-19.4,23.7C3.9,26.4-11.3,58.3,10.5,76.5c18.4,21.6,50.3,6.6,52.7-17.8c3.2-1.4,6.4-3.1,9.4-5
			C68.8,51,65,47.8,62.7,44.7z"/>
	</g>
	<g id="Navy_294C">
		<path class="st0" d="M136.3,79.6c-17,17.1-48.1,1.9-49.5-20.9C78,55,62.7,44.9,63,38.5c0.3-4.6,2.3-9.2,4.7-13.2
			c2.4,2.6,4.7,5.6,5.9,8.5c-0.1,0.2-0.1,0.3-0.2,0.5l0,0c-0.2,0.8-0.4,1.6-0.5,2.4l0,0c0,0.2,0,0.4,0.1,0.7l0,0
			c0,0.2,0.1,0.5,0.2,0.7l0,0c0,0,0,0.1,0.1,0.1l0,0c0.4,0.8,1,1.4,1.7,2l0,0l0,0c0,0,0,0,0,0c0,0,0,0,0,0c2.6,2.1,5.9,3.5,9.1,4.2
			c1.1,0.2,2.1,0.3,3.2,0.3c0.1,0,0.1,0,0.2,0c0.1,0,0.1,0,0.1,0l0,0c0.2,0,0.5-0.1,0.7-0.1c0,0,0.1,0,0.1,0
			c2.9-8.3,9.6-15.3,17.8-18.6c0.4-0.2,0.9-0.4,1.3-0.5c0,0,0-0.1,0-0.1l0,0c0.6-4.1-1.1-8.3-3.1-11.7c-5.6-9.1-15.7,1.9-21.7,7.5
			c-1.7-2.5-3.6-4.9-5.9-7.3c7.2-6.4,17.1-15.4,27.4-13.1c8.3,5.2,13.4,14.5,17.5,23.1c2.1,0.2,4.1,0.7,6.1,1.3c0,0,0,0,0,0l0,0
			c2.2,0.7,4.4,1.7,6.5,2.9l0,0c0.7,0.4,1.3,0.8,2,1.2l0,0c0.1,0.1,0.3,0.2,0.4,0.3l0,0c0.5,0.4,1.1,0.8,1.6,1.2l0,0
			c0.2,0.1,0.4,0.3,0.5,0.4l0,0C154.5,45,153.3,66.9,136.3,79.6z M72.4,53.8c-2.9,1.8-6,3.5-9.1,4.8c-2.5,24.4-34.3,39.4-52.7,17.8
			c-21.8-18.2-6.6-50.1,17.8-52.7C32.1,15.8,39,2.8,47.7,0C63-0.1,91.2,26.1,85.9,42c-3.4-0.4-6.7-1.9-9.2-3.9l0,0
			c1.8-9.3-17.6-27.4-26.4-28.2c-5.4,0.8-8.6,10.5-7.9,15.3l0,0c0,0,0,0.1,0,0.1C51,28.3,58.7,36,61.6,44.5c0.4,0.1,0.8,0.1,1.1,0.2
			c2.3,3.2,6,6.3,9.9,9C72.5,53.7,72.4,53.8,72.4,53.8z"/>
	</g>
	<g id="Red_185C">
		<path class="st0" d="M145,70.4c9.4-12.5,4.8-29.7-6.2-39.2l0,0c-0.2-0.2-0.4-0.3-0.5-0.4l0,0c-0.5-0.4-1-0.8-1.6-1.2l0,0
			c-0.1-0.1-0.3-0.2-0.4-0.3l0,0c-0.6-0.4-1.3-0.9-2-1.2l0,0c-2.1-1.2-4.2-2.2-6.5-2.9l0,0c0,0,0,0,0,0c-2-0.6-4.1-1.1-6.1-1.3
			c-4.1-8.5-9.1-17.6-17.1-22.9c-9.9-3-20.8,6.7-27.7,12.9c2.2,2.4,4.2,4.9,5.9,7.3c6-5.5,16.1-16.6,21.7-7.5
			c2,3.5,3.8,7.7,3.1,11.7l0,0c0,0,0,0.1,0,0.1c-0.5,0.2-0.9,0.3-1.3,0.5C98,29.2,91.3,36.3,88.4,44.5c0,0-0.1,0-0.1,0
			c-0.2,0.1-0.4,0.1-0.7,0.1l0,0c-0.1,0-0.1,0-0.1,0c-0.1,0-0.1,0-0.2,0c-4.4,0.1-8.8-1.7-12.3-4.4l0,0c0,0,0,0,0,0l0,0
			c-0.7-0.6-1.3-1.2-1.7-2l0,0c0,0,0-0.1-0.1-0.1l0,0c-0.1-0.2-0.2-0.5-0.2-0.7l0,0c0-0.2-0.1-0.4-0.1-0.7l0,0
			c0.1-0.8,0.2-1.6,0.5-2.4l0,0c0.1-0.2,0.1-0.3,0.2-0.5c-1.2-2.8-3.5-5.8-5.9-8.5c-2.4,4-4.4,8.5-4.7,13.2
			C62.7,44.9,78,55,86.7,58.7c1.6,18.8,21.9,32.6,40,27C133.9,83.1,140.5,75.9,145,70.4z"/>
	</g>
</g>
</svg>
